<svg width="458" height="32" viewBox="0 0 458 32" fill="none" xmlns="http://www.w3.org/2000/svg">
<path d="M0.917969 3.34375V2.84375C0.75081 2.84375 0.594708 2.92728 0.501971 3.06636C0.409234 3.20543 0.392131 3.38165 0.456392 3.53597L0.917969 3.34375ZM5.11719 3.34375L5.58101 3.15702C5.50481 2.96774 5.32123 2.84375 5.11719 2.84375V3.34375ZM11.5625 19.3789L12.0321 19.207L12.0281 19.1967L11.5625 19.3789ZM12.6172 22.3477L12.1415 22.5022L12.1456 22.5137L12.6172 22.3477ZM13.1055 23.7344L12.6339 23.9004C12.7043 24.1005 12.8933 24.2344 13.1055 24.2344V23.7344ZM13.2812 23.7344V24.2344C13.5061 24.2344 13.7032 24.0843 13.7632 23.8677L13.2812 23.7344ZM13.8281 21.8594L13.352 21.7066L13.35 21.713L13.8281 21.8594ZM14.4922 19.7891L14.017 19.6334L14.0161 19.6363L14.4922 19.7891ZM15.3125 17.4258L15.7822 17.5973L15.7831 17.5948L15.3125 17.4258ZM20.3711 3.34375V2.84375C20.1601 2.84375 19.9719 2.97617 19.9005 3.17471L20.3711 3.34375ZM21.4844 3.34375L21.952 3.16688C21.8785 2.97241 21.6923 2.84375 21.4844 2.84375V3.34375ZM26.6992 17.1328L27.1726 16.9718C27.1708 16.9665 27.1689 16.9612 27.1669 16.9559L26.6992 17.1328ZM28.9453 23.7344L28.472 23.8954C28.5409 24.0981 28.7312 24.2344 28.9453 24.2344V23.7344ZM29.1211 23.7344V24.2344C29.34 24.2344 29.5334 24.092 29.5985 23.883L29.1211 23.7344ZM30.5078 19.2812L30.0311 19.1303L30.0304 19.1326L30.5078 19.2812ZM31.2695 17.0742L31.7374 17.2508L31.7396 17.2447L31.2695 17.0742ZM36.25 3.34375V2.84375C36.0396 2.84375 35.8517 2.97546 35.78 3.17325L36.25 3.34375ZM40.4492 3.34375L40.9153 3.52485C40.975 3.37102 40.9551 3.1976 40.8619 3.06139C40.7687 2.92519 40.6143 2.84375 40.4492 2.84375V3.34375ZM29.5508 31.3906V31.8906C29.757 31.8906 29.9421 31.764 30.0168 31.5717L29.5508 31.3906ZM28.4375 31.3906L27.97 31.5678C28.0436 31.7621 28.2297 31.8906 28.4375 31.8906V31.3906ZM22.5 15.7266L22.9677 15.5493L22.9632 15.5384L22.5 15.7266ZM21.9922 14.3008L22.4688 14.1497L22.4674 14.1453L21.9922 14.3008ZM20.9375 11.0781L21.4127 10.9226C21.3454 10.7171 21.1537 10.5781 20.9375 10.5781V11.0781ZM20.8203 11.0781V10.5781C20.5993 10.5781 20.4045 10.7232 20.3412 10.935L20.8203 11.0781ZM20.3125 12.7773L19.8334 12.6342L19.8332 12.6349L20.3125 12.7773ZM19.8438 14.2812L20.3144 14.45C20.3161 14.4453 20.3177 14.4405 20.3193 14.4358L19.8438 14.2812ZM13.7109 31.3906V31.8906C13.922 31.8906 14.1104 31.7581 14.1816 31.5593L13.7109 31.3906ZM12.5977 31.3906L12.1361 31.5828C12.2137 31.7692 12.3958 31.8906 12.5977 31.8906V31.3906ZM0.917969 3.84375H5.11719V2.84375H0.917969V3.84375ZM4.65336 3.53048C8.71681 13.624 10.8637 18.9652 11.0969 19.5611L12.0281 19.1967C11.7926 18.5947 9.64256 13.2458 5.58101 3.15702L4.65336 3.53048ZM11.093 19.5508C11.6272 21.0102 11.9757 21.9914 12.1417 22.5022L13.0927 22.1931C12.9202 21.6622 12.5655 20.6643 12.032 19.207L11.093 19.5508ZM12.6172 22.3477C12.1456 22.5137 12.1456 22.5137 12.1456 22.5137C12.1456 22.5137 12.1456 22.5137 12.1456 22.5137C12.1456 22.5137 12.1456 22.5138 12.1456 22.5138C12.1456 22.5138 12.1456 22.5138 12.1456 22.5138C12.1456 22.5139 12.1456 22.5139 12.1457 22.5141C12.1457 22.5141 12.1457 22.5141 12.1457 22.5141C12.1457 22.5142 12.1457 22.5142 12.1458 22.5142C12.1458 22.5143 12.1458 22.5144 12.1458 22.5145C12.1459 22.5148 12.1458 22.5145 12.1459 22.5148C12.146 22.5148 12.146 22.5149 12.146 22.5149C12.146 22.515 12.146 22.515 12.146 22.5151C12.1462 22.5156 12.147 22.5177 12.1475 22.5191C12.1524 22.5331 12.147 22.5178 12.1532 22.5354C12.1562 22.544 12.1584 22.5502 12.1627 22.5625C12.1693 22.5812 12.162 22.5604 12.1689 22.5801C12.1703 22.5839 12.1693 22.581 12.1706 22.5849C12.1708 22.5853 12.1709 22.5857 12.1711 22.5861C12.1712 22.5865 12.1714 22.587 12.1715 22.5874C12.1717 22.5878 12.1718 22.5882 12.1719 22.5886C12.1721 22.589 12.1722 22.5895 12.1724 22.5899C12.1725 22.5903 12.1727 22.5907 12.1728 22.5912C12.173 22.5916 12.1731 22.592 12.1733 22.5925C12.1734 22.5929 12.1736 22.5933 12.1737 22.5937C12.1739 22.5942 12.1741 22.5946 12.1742 22.5951C12.1744 22.5955 12.1745 22.5959 12.1747 22.5964C12.1748 22.5968 12.175 22.5973 12.1751 22.5977C12.1755 22.5986 12.1758 22.5994 12.1761 22.6004C12.189 22.637 12.1962 22.6576 12.2142 22.7087C12.2218 22.7303 12.2182 22.7201 12.2262 22.7426C12.2362 22.7711 12.2287 22.7497 12.239 22.7791C12.2445 22.7947 12.2471 22.802 12.2529 22.8184C12.2593 22.8368 12.2609 22.8411 12.2676 22.8604C12.28 22.8954 12.2707 22.8692 12.2834 22.9051C12.2899 22.9235 12.285 22.9098 12.2916 22.9284C12.2926 22.9311 12.299 22.9496 12.3001 22.9525C12.3136 22.9909 12.3215 23.0134 12.3363 23.0554C12.3406 23.0676 12.3368 23.0568 12.3411 23.069C12.3434 23.0756 12.3436 23.0762 12.346 23.0828C12.3476 23.0874 12.3542 23.1061 12.3559 23.1109C12.3595 23.1213 12.3724 23.1578 12.3764 23.1692C12.3898 23.2072 12.4055 23.2521 12.4202 23.2937C12.4253 23.308 12.4382 23.3449 12.4436 23.3601C12.4494 23.3765 12.4498 23.3777 12.4556 23.3943C12.4679 23.429 12.4556 23.3942 12.4679 23.4292C12.4712 23.4386 12.4895 23.4906 12.4932 23.5009C12.499 23.5175 12.4938 23.5027 12.4997 23.5193C12.5033 23.5296 12.4993 23.5183 12.5029 23.5286C12.5037 23.5309 12.5053 23.5355 12.5062 23.5378C12.5078 23.5425 12.5111 23.5518 12.5128 23.5566C12.5202 23.5777 12.512 23.5542 12.5194 23.5754C12.5196 23.5761 12.5326 23.6128 12.5329 23.6137C12.5345 23.6184 12.5449 23.6477 12.5466 23.6526C12.5553 23.6773 12.5657 23.7069 12.5747 23.7325C12.5874 23.7685 12.5908 23.7782 12.6038 23.8151C12.6151 23.8473 12.6222 23.8674 12.6339 23.9004L13.5771 23.5683C13.5728 23.5561 13.5738 23.5589 13.5695 23.5467C13.5659 23.5365 13.5693 23.5462 13.5657 23.536C13.5651 23.5342 13.5645 23.5324 13.5638 23.5307C13.5632 23.5289 13.5626 23.5271 13.5619 23.5253C13.5536 23.5017 13.5553 23.5064 13.547 23.483C13.5449 23.477 13.5344 23.4472 13.5324 23.4414C13.5311 23.4376 13.5192 23.4039 13.518 23.4004C13.5144 23.3903 13.493 23.3296 13.4898 23.3205C13.4677 23.2576 13.4845 23.3053 13.4626 23.2433C13.4359 23.1673 13.3851 23.0232 13.3635 22.9616C13.3141 22.8214 13.2399 22.6107 13.2109 22.5283C13.2106 22.5274 13.2102 22.5265 13.2099 22.5256C13.2096 22.5247 13.2093 22.5238 13.209 22.5229C13.2087 22.522 13.2083 22.5211 13.208 22.5202C13.2077 22.5193 13.2074 22.5184 13.2071 22.5175C13.2068 22.5166 13.2065 22.5157 13.2062 22.5149C13.2058 22.514 13.2055 22.5131 13.2052 22.5122C13.2025 22.5045 13.2061 22.5146 13.2034 22.5069C13.1976 22.4907 13.2017 22.5023 13.1961 22.4863C13.1902 22.4695 13.1949 22.4829 13.1891 22.4663C13.1791 22.438 13.1921 22.4751 13.1823 22.447C13.1762 22.4297 13.1623 22.3903 13.1575 22.3766C13.1514 22.3594 13.1413 22.3306 13.1365 22.317C13.1297 22.2976 13.1386 22.323 13.1318 22.3038C13.1312 22.3019 13.1314 22.3025 13.1307 22.3006C13.1305 22.3001 13.1303 22.2996 13.1302 22.299C13.13 22.2985 13.1298 22.298 13.1296 22.2975C13.1294 22.2969 13.1292 22.2964 13.1291 22.2959C13.1289 22.2954 13.1287 22.2949 13.1285 22.2944C13.1285 22.2943 13.1274 22.2913 13.1274 22.2913C13.1273 22.2909 13.1233 22.2796 13.1233 22.2794C13.1231 22.279 13.1214 22.2741 13.1213 22.2738C13.1211 22.2733 13.1195 22.2687 13.1193 22.2683C13.1024 22.2201 13.1083 22.237 13.0964 22.2033C13.0962 22.2027 13.0957 22.2012 13.0955 22.2006C13.0949 22.1989 13.0952 22.1999 13.0946 22.1982C13.0939 22.196 13.0938 22.1958 13.0931 22.1938C13.0923 22.1915 13.0912 22.1884 13.0907 22.187C13.0906 22.1868 13.0903 22.1859 13.0903 22.1857C13.0898 22.1844 13.0905 22.1865 13.0901 22.1852C13.0899 22.1848 13.09 22.185 13.0899 22.1846C13.0897 22.1842 13.0894 22.1832 13.0893 22.1829C13.089 22.1823 13.0891 22.1824 13.0889 22.1819C13.0889 22.1819 13.0889 22.1819 13.0889 22.1819C13.0889 22.1818 13.0889 22.1818 13.0889 22.1818C13.0889 22.1818 13.0889 22.1817 13.0889 22.1817C13.0888 22.1817 13.0888 22.1817 13.0888 22.1817C13.0888 22.1816 13.0888 22.1817 13.0888 22.1816C13.0888 22.1816 13.0888 22.1816 13.0888 22.1816C13.0888 22.1816 13.0888 22.1816 12.6172 22.3477ZM13.1055 24.2344H13.2812V23.2344H13.1055V24.2344ZM13.7632 23.8677C13.9312 23.2603 14.1122 22.6396 14.3062 22.0057L13.35 21.713C13.1535 22.3552 12.9699 22.9845 12.7993 23.6011L13.7632 23.8677ZM13.8281 21.8594C14.3042 22.0121 14.3042 22.0121 14.3042 22.0121C14.3042 22.0121 14.3042 22.0121 14.3042 22.0121C14.3043 22.012 14.3043 22.012 14.3043 22.012C14.3043 22.0118 14.3043 22.0118 14.3044 22.0116C14.3044 22.0115 14.3047 22.0105 14.3049 22.0101C14.3053 22.0088 14.306 22.0066 14.3068 22.004C14.3072 22.0027 14.3078 22.0011 14.3083 21.9995C14.3085 21.9988 14.3089 21.9976 14.3091 21.9968C14.3092 21.9964 14.3095 21.9957 14.3096 21.9954C14.3097 21.9952 14.31 21.9941 14.3101 21.9939C14.3109 21.9912 14.3133 21.9838 14.3146 21.9797C14.3244 21.9493 14.329 21.9347 14.3457 21.8827C14.3577 21.8454 14.3554 21.8526 14.3691 21.8099C14.3709 21.8044 14.3805 21.7743 14.3827 21.7675C14.3867 21.7551 14.3859 21.7574 14.39 21.7447C14.391 21.7415 14.3927 21.7362 14.3938 21.733C14.3951 21.7289 14.3944 21.7311 14.3957 21.727C14.3958 21.7265 14.3975 21.7214 14.3976 21.721C14.4128 21.6736 14.4144 21.6686 14.4313 21.6158C14.4412 21.585 14.4586 21.5307 14.4702 21.4945C14.4926 21.4249 14.5344 21.2945 14.5636 21.2034C14.5778 21.1591 14.6022 21.0832 14.6181 21.0335C14.6259 21.0091 14.639 20.9683 14.6473 20.9426C14.6534 20.9236 14.6562 20.9148 14.6624 20.8956C14.6645 20.889 14.6679 20.8783 14.67 20.8717C14.6705 20.8701 14.6772 20.8492 14.6778 20.8475C14.6798 20.8412 14.7071 20.7561 14.7095 20.7485C14.7228 20.7073 14.729 20.6879 14.7426 20.6454C14.7473 20.6309 14.7549 20.6071 14.7596 20.5923C14.762 20.5849 14.7659 20.5728 14.7683 20.5654C14.7701 20.5598 14.7752 20.5439 14.777 20.5382C14.7801 20.5285 14.8091 20.438 14.8127 20.427C14.8524 20.3032 14.9217 20.0871 14.9683 19.9418L14.0161 19.6363C14.0152 19.639 14.0144 19.6417 14.0135 19.6444C14.0126 19.6471 14.0118 19.6498 14.0109 19.6525C14.01 19.6552 14.0092 19.6579 14.0083 19.6605C14.0075 19.6632 14.0066 19.6659 14.0057 19.6686C14.0003 19.6856 14.0009 19.6836 13.9955 19.7005C13.9932 19.7078 13.9876 19.7251 13.9853 19.7323C13.9809 19.7461 13.9847 19.7342 13.9803 19.748C13.9794 19.7506 13.9786 19.7533 13.9777 19.7559C13.9769 19.7585 13.9761 19.7611 13.9752 19.7637C13.9717 19.7746 13.9387 19.8775 13.9357 19.8871C13.9354 19.888 13.9166 19.9466 13.9164 19.9472C13.9156 19.9497 13.9148 19.9522 13.914 19.9546C13.9132 19.9571 13.9124 19.9596 13.9116 19.9621C13.9099 19.9672 13.9085 19.9718 13.9068 19.9769C13.9012 19.9945 13.903 19.9889 13.8974 20.0063C13.8868 20.0394 13.8893 20.0317 13.8788 20.0645C13.8751 20.0759 13.864 20.1105 13.8604 20.1216C13.8007 20.308 13.7784 20.3773 13.7256 20.5421C13.6827 20.6757 13.6474 20.7859 13.6114 20.8979C13.5878 20.9716 13.584 20.9834 13.5621 21.0516C13.5402 21.1201 13.5383 21.126 13.518 21.1891C13.5176 21.1904 13.5172 21.1918 13.5167 21.1931C13.5163 21.1945 13.5159 21.1958 13.5154 21.1971C13.515 21.1985 13.5146 21.1998 13.5142 21.2011C13.5137 21.2025 13.5133 21.2038 13.5129 21.2051C13.5125 21.2065 13.512 21.2078 13.5116 21.2091C13.5112 21.2104 13.5108 21.2117 13.5103 21.2131C13.5099 21.2144 13.5095 21.2157 13.5091 21.217C13.5087 21.2183 13.5082 21.2196 13.5078 21.2209C13.5043 21.2318 13.5013 21.2412 13.4979 21.2518C13.494 21.2642 13.4827 21.2993 13.4791 21.3104C13.4782 21.3132 13.4777 21.3147 13.4769 21.3174C13.4765 21.3186 13.475 21.3233 13.4746 21.3244C13.4737 21.3273 13.4711 21.3354 13.4702 21.3382C13.4662 21.3506 13.4698 21.3394 13.4659 21.3517C13.4655 21.3528 13.4652 21.3539 13.4648 21.3551C13.4644 21.3562 13.4641 21.3573 13.4637 21.3584C13.4632 21.3601 13.4622 21.3633 13.4616 21.365C13.4549 21.3861 13.4517 21.3958 13.4454 21.4155C13.4335 21.4525 13.3985 21.5619 13.3935 21.5773C13.3818 21.6137 13.3853 21.6028 13.3754 21.6339C13.3709 21.6479 13.3723 21.6434 13.3682 21.6561C13.3672 21.6594 13.3661 21.6628 13.3651 21.6657C13.3645 21.6678 13.363 21.6726 13.3624 21.6743C13.3621 21.6752 13.3614 21.6774 13.3611 21.6782C13.3602 21.6812 13.3609 21.6791 13.36 21.6819C13.3581 21.6876 13.3596 21.6831 13.3579 21.6885C13.3547 21.6982 13.3573 21.6902 13.3546 21.6986C13.3546 21.6987 13.3545 21.6989 13.3545 21.6991C13.3544 21.6992 13.3543 21.6994 13.3543 21.6996C13.3542 21.6999 13.3541 21.7002 13.354 21.7005C13.354 21.7006 13.3539 21.7008 13.3539 21.7009C13.3538 21.701 13.3538 21.7012 13.3537 21.7013C13.3537 21.7015 13.3535 21.702 13.3535 21.7021C13.3528 21.7043 13.3533 21.7028 13.3527 21.7046C13.3526 21.7047 13.3526 21.7048 13.3526 21.7049C13.3526 21.705 13.3525 21.705 13.3525 21.7051C13.3525 21.7052 13.3524 21.7055 13.3524 21.7055C13.3524 21.7056 13.3523 21.7056 13.3523 21.7057C13.3523 21.7058 13.3523 21.7058 13.3523 21.7059C13.3523 21.7059 13.3522 21.706 13.3522 21.706C13.3522 21.7061 13.3522 21.7061 13.3522 21.7062C13.3521 21.7063 13.3521 21.7063 13.3521 21.7064C13.3521 21.7064 13.3521 21.7065 13.3521 21.7065C13.3521 21.7066 13.352 21.7066 13.352 21.7066C13.352 21.7066 13.352 21.7066 13.352 21.7066C13.352 21.7066 13.352 21.7066 13.352 21.7067C13.352 21.7067 13.352 21.7067 13.8281 21.8594ZM14.9673 19.9447C15.2128 19.1953 15.4844 18.4128 15.7822 17.5973L14.8428 17.2543C14.5416 18.0794 14.2663 18.8724 14.017 19.6334L14.9673 19.9447ZM15.7831 17.5948L20.8417 3.51279L19.9005 3.17471L14.8419 17.2567L15.7831 17.5948ZM20.3711 3.84375H21.4844V2.84375H20.3711V3.84375ZM21.0167 3.52062L26.2315 17.3097L27.1669 16.9559L21.952 3.16688L21.0167 3.52062ZM26.2259 17.2939L28.472 23.8954L29.4187 23.5733L27.1726 16.9718L26.2259 17.2939ZM28.9453 24.2344H29.1211V23.2344H28.9453V24.2344ZM29.5985 23.883L30.9852 19.4299L30.0304 19.1326L28.6437 23.5857L29.5985 23.883ZM30.9845 19.4322C31.2294 18.6586 31.4804 17.9315 31.7373 17.2507L30.8017 16.8977C30.5378 17.5971 30.281 18.3414 30.0311 19.1303L30.9845 19.4322ZM31.7396 17.2447L36.72 3.51425L35.78 3.17325L30.7995 16.9037L31.7396 17.2447ZM36.25 3.84375H40.4492V2.84375H36.25V3.84375ZM39.9832 3.16265L29.0847 31.2095L30.0168 31.5717L40.9153 3.52485L39.9832 3.16265ZM29.5508 30.8906H28.4375V31.8906H29.5508V30.8906ZM28.905 31.2134L22.9675 15.5493L22.0325 15.9038L27.97 31.5678L28.905 31.2134ZM22.9632 15.5384C22.7999 15.1364 22.635 14.6739 22.4688 14.1497L21.5156 14.4519C21.6879 14.9954 21.8615 15.4834 22.0368 15.9148L22.9632 15.5384ZM22.4674 14.1453L21.4127 10.9226L20.4623 11.2336L21.517 14.4563L22.4674 14.1453ZM20.9375 10.5781H20.8203V11.5781H20.9375V10.5781ZM20.3412 10.935L19.8334 12.6342L20.7916 12.9205L21.2994 11.2213L20.3412 10.935ZM19.8332 12.6349C19.6913 13.1123 19.5363 13.6095 19.3682 14.1267L20.3193 14.4358C20.4897 13.9113 20.6472 13.406 20.7918 12.9198L19.8332 12.6349ZM19.3731 14.1125L13.2403 31.2219L14.1816 31.5593L20.3144 14.45L19.3731 14.1125ZM13.7109 30.8906H12.5977V31.8906H13.7109V30.8906ZM13.0592 31.1984L1.37955 3.15153L0.456392 3.53597L12.1361 31.5828L13.0592 31.1984ZM60.4883 15.8047L60.0194 15.9784L60.0221 15.9853L60.4883 15.8047ZM60.7031 23.1875V23.6875C60.9475 23.6875 61.1561 23.5108 61.1963 23.2697L60.7031 23.1875ZM47.1094 23.1875V22.6875C46.9611 22.6875 46.8205 22.7533 46.7255 22.8671C46.6305 22.981 46.5909 23.1311 46.6174 23.2769L47.1094 23.1875ZM49.0234 26.918L48.6847 27.2858L48.6873 27.2882L49.0234 26.918ZM59.8828 26.9375L60.3707 26.8283C60.3381 26.6825 60.242 26.5589 60.1086 26.4914C59.9753 26.4239 59.8188 26.4196 59.6819 26.4796L59.8828 26.9375ZM60.5078 29.7305L60.7595 30.1625C60.9477 30.0528 61.0433 29.8339 60.9957 29.6213L60.5078 29.7305ZM54.7656 31.2734L54.7161 30.7758L54.7094 30.7766L54.7656 31.2734ZM45.5859 28.7734L45.2186 29.1127L45.2187 29.1128L45.5859 28.7734ZM46.0547 14.0078L45.6976 13.6578L45.6952 13.6603L46.0547 14.0078ZM57.5586 20.3164V20.8164C57.8204 20.8164 58.0379 20.6144 58.0572 20.3533L57.5586 20.3164ZM57.6367 19.2617L58.1354 19.2987C58.1363 19.2864 58.1367 19.274 58.1367 19.2617H57.6367ZM54.9609 14.5156L55.1615 14.0576L55.1603 14.0571L54.9609 14.5156ZM50.5078 14.6133L50.2977 14.1595L50.2945 14.1611L50.5078 14.6133ZM48.7109 15.9414L49.0809 16.2777L49.0813 16.2773L48.7109 15.9414ZM46.9531 20.3164L46.4545 20.2797C46.4443 20.4183 46.4922 20.5549 46.5868 20.6567C46.6814 20.7586 46.8141 20.8164 46.9531 20.8164V20.3164ZM58.5136 13.5411C59.1456 14.173 59.65 14.981 60.0194 15.9783L60.9572 15.631C60.5453 14.519 59.969 13.5822 59.2207 12.8339L58.5136 13.5411ZM60.0221 15.9853C60.4025 16.9673 60.5938 18.0061 60.5938 19.1055H61.5938C61.5938 17.8872 61.3813 16.7255 60.9545 15.624L60.0221 15.9853ZM60.5938 19.1055C60.5938 20.2289 60.4673 21.5608 60.2099 23.1053L61.1963 23.2697C61.4597 21.6892 61.5938 20.2998 61.5938 19.1055H60.5938ZM60.7031 22.6875H47.1094V23.6875H60.7031V22.6875ZM46.6174 23.2769C46.9195 24.9384 47.6008 26.2874 48.6847 27.2857L49.3622 26.5502C48.467 25.7256 47.8721 24.5876 47.6013 23.0981L46.6174 23.2769ZM48.6873 27.2882C49.7973 28.2959 51.3331 28.7656 53.2227 28.7656V27.7656C51.4925 27.7656 50.2287 27.3369 49.3595 26.5478L48.6873 27.2882ZM53.2227 28.7656C55.7068 28.7656 57.9961 28.3112 60.0837 27.3954L59.6819 26.4796C57.7331 27.3346 55.5823 27.7656 53.2227 27.7656V28.7656ZM59.3949 27.0467L60.0199 29.8397L60.9957 29.6213L60.3707 26.8283L59.3949 27.0467ZM60.2561 29.2984C59.0034 30.0282 57.1703 30.5318 54.7161 30.7759L54.8151 31.771C57.3349 31.5203 59.33 30.9952 60.7595 30.1625L60.2561 29.2984ZM54.7094 30.7766C54.0455 30.8518 53.1679 30.8906 52.0703 30.8906V31.8906C53.1863 31.8906 54.1055 31.8514 54.8219 31.7703L54.7094 30.7766ZM52.0703 30.8906C51.0309 30.8906 49.9303 30.6828 48.7654 30.257L48.4221 31.1962C49.6791 31.6557 50.8962 31.8906 52.0703 31.8906V30.8906ZM48.7654 30.257C47.6214 29.8387 46.6882 29.2294 45.9531 28.4341L45.2187 29.1128C46.0722 30.0363 47.1443 30.729 48.4221 31.1962L48.7654 30.257ZM45.9532 28.4342C44.493 26.8533 43.7227 24.4945 43.7227 21.2734H42.7227C42.7227 24.6409 43.5278 27.2821 45.2186 29.1127L45.9532 28.4342ZM43.7227 21.2734C43.7227 18.5033 44.6225 16.2088 46.4142 14.3553L45.6952 13.6603C43.7109 15.7131 42.7227 18.2623 42.7227 21.2734H43.7227ZM46.4118 14.3578C48.2269 12.5056 50.4853 11.5781 53.2227 11.5781V10.5781C50.2308 10.5781 47.7106 11.6038 45.6976 13.6578L46.4118 14.3578ZM53.2227 11.5781C55.4732 11.5781 57.2183 12.2457 58.5136 13.5411L59.2207 12.8339C57.7036 11.3168 55.6857 10.5781 53.2227 10.5781V11.5781ZM58.0572 20.3533L58.1354 19.2987L57.1381 19.2248L57.06 20.2795L58.0572 20.3533ZM58.1367 19.2617C58.1367 18.0103 57.9027 16.9283 57.4033 16.0425C56.9002 15.1501 56.1451 14.4884 55.1615 14.0576L54.7604 14.9736C55.5606 15.3241 56.1434 15.844 56.5322 16.5336C56.9248 17.2299 57.1367 18.1303 57.1367 19.2617H58.1367ZM55.1603 14.0571C54.4836 13.7629 53.6962 13.625 52.8125 13.625V14.625C53.5954 14.625 54.2403 14.7475 54.7616 14.9742L55.1603 14.0571ZM52.8125 13.625C51.9122 13.625 51.0716 13.8013 50.2978 14.1595L50.7179 15.067C51.3503 14.7742 52.0461 14.625 52.8125 14.625V13.625ZM50.2945 14.1611C49.5455 14.5144 48.893 14.9964 48.3406 15.6055L49.0813 16.2773C49.5445 15.7666 50.0899 15.3632 50.7211 15.0655L50.2945 14.1611ZM48.341 15.6051C47.2133 16.8455 46.5916 18.4146 46.4545 20.2797L47.4518 20.3531C47.5751 18.6766 48.1252 17.329 49.0809 16.2777L48.341 15.6051ZM46.9531 20.8164H57.5586V19.8164H46.9531V20.8164ZM66.5625 0.511719V0.0117188C66.2864 0.0117188 66.0625 0.235576 66.0625 0.511719H66.5625ZM70.2734 0.511719H70.7734C70.7734 0.235576 70.5496 0.0117188 70.2734 0.0117188V0.511719ZM70.5469 26.9766L70.0845 27.167L70.0877 27.1744L70.5469 26.9766ZM72.4219 28.5977L72.9094 28.7086C72.9692 28.446 72.8102 28.1832 72.5498 28.1143L72.4219 28.5977ZM71.875 31L71.939 31.4959C72.1469 31.4691 72.316 31.3154 72.3625 31.111L71.875 31ZM67.5586 29.3984L67.137 29.6672L67.1388 29.6701L67.5586 29.3984ZM66.5625 1.01172H70.2734V0.0117188H66.5625V1.01172ZM69.7734 0.511719V24.3203H70.7734V0.511719H69.7734ZM69.7734 24.3203C69.7734 24.994 69.7965 25.5659 69.8444 26.0317C69.8915 26.4887 69.9656 26.8781 70.0845 27.1669L71.0092 26.7862C70.9459 26.6323 70.8833 26.3577 70.8392 25.9293C70.796 25.5096 70.7734 24.9747 70.7734 24.3203H69.7734ZM70.0877 27.1744C70.5125 28.1607 71.259 28.8071 72.2939 29.081L72.5498 28.1143C71.8139 27.9195 71.3104 27.4851 71.0061 26.7788L70.0877 27.1744ZM71.9343 28.4867L71.3875 30.889L72.3625 31.111L72.9094 28.7086L71.9343 28.4867ZM71.811 30.5041C69.9184 30.7483 68.7016 30.2444 67.9784 29.1268L67.1388 29.6701C68.1344 31.2087 69.7951 31.7725 71.939 31.4959L71.811 30.5041ZM67.9802 29.1297C67.3929 28.2084 67.0625 26.7225 67.0625 24.5938H66.0625C66.0625 26.7879 66.3962 28.5052 67.137 29.6672L67.9802 29.1297ZM67.0625 24.5938V0.511719H66.0625V24.5938H67.0625ZM77.4219 0.511719V0.0117188C77.1457 0.0117188 76.9219 0.235576 76.9219 0.511719H77.4219ZM81.1328 0.511719H81.6328C81.6328 0.235576 81.409 0.0117188 81.1328 0.0117188V0.511719ZM81.4062 26.9766L80.9439 27.167L80.947 27.1744L81.4062 26.9766ZM83.2812 28.5977L83.7688 28.7086C83.8286 28.446 83.6696 28.1832 83.4092 28.1143L83.2812 28.5977ZM82.7344 31L82.7984 31.4959C83.0063 31.4691 83.1754 31.3154 83.2219 31.111L82.7344 31ZM78.418 29.3984L77.9963 29.6672L77.9982 29.6701L78.418 29.3984ZM77.4219 1.01172H81.1328V0.0117188H77.4219V1.01172ZM80.6328 0.511719V24.3203H81.6328V0.511719H80.6328ZM80.6328 24.3203C80.6328 24.994 80.6559 25.5659 80.7038 26.0317C80.7508 26.4887 80.825 26.8781 80.9439 27.1669L81.8686 26.7862C81.8052 26.6323 81.7426 26.3577 81.6985 25.9293C81.6553 25.5096 81.6328 24.9747 81.6328 24.3203H80.6328ZM80.947 27.1744C81.3719 28.1607 82.1184 28.8071 83.1533 29.081L83.4092 28.1143C82.6732 27.9195 82.1697 27.4851 81.8655 26.7788L80.947 27.1744ZM82.7937 28.4867L82.2468 30.889L83.2219 31.111L83.7688 28.7086L82.7937 28.4867ZM82.6704 30.5041C80.7778 30.7483 79.5609 30.2444 78.8378 29.1268L77.9982 29.6701C78.9938 31.2087 80.6545 31.7725 82.7984 31.4959L82.6704 30.5041ZM78.8396 29.1297C78.2523 28.2084 77.9219 26.7225 77.9219 24.5938H76.9219C76.9219 26.7879 77.2555 28.5052 77.9964 29.6672L78.8396 29.1297ZM77.9219 24.5938V0.511719H76.9219V24.5938H77.9219ZM102.676 26.8203L103.161 26.6999C103.125 26.553 103.024 26.4305 102.886 26.3668C102.749 26.3031 102.59 26.305 102.455 26.3719L102.676 26.8203ZM103.359 29.5742L103.658 29.9754C103.82 29.8551 103.893 29.6494 103.845 29.4538L103.359 29.5742ZM89.0625 28.6172L89.4287 28.2768L89.4278 28.2757L89.0625 28.6172ZM89.375 14.0078L89.0179 13.6578L89.0155 13.6603L89.375 14.0078ZM102.832 12.8555L103.289 13.058C103.384 12.8433 103.317 12.5913 103.128 12.4524L102.832 12.8555ZM101.543 15.7656L101.245 16.1669C101.367 16.2576 101.523 16.2878 101.67 16.2492C101.817 16.2105 101.939 16.1071 102 15.9681L101.543 15.7656ZM91.8359 16.1953L92.2245 16.51L92.226 16.5081L91.8359 16.1953ZM91.9141 26.1562L92.2999 25.8383L92.2997 25.838L91.9141 26.1562ZM102.191 26.9408L102.874 29.6947L103.845 29.4538L103.161 26.6999L102.191 26.9408ZM103.061 29.1731C101.556 30.2928 99.2847 30.8906 96.1719 30.8906V31.8906C99.3872 31.8906 101.908 31.2775 103.658 29.9754L103.061 29.1731ZM96.1719 30.8906C93.2604 30.8906 91.0344 30.0041 89.4287 28.2768L88.6963 28.9576C90.5281 30.9282 93.0417 31.8906 96.1719 31.8906V30.8906ZM89.4278 28.2757C87.8556 26.5939 87.043 24.28 87.043 21.2734H86.043C86.043 24.4648 86.9101 27.0468 88.6972 28.9586L89.4278 28.2757ZM87.043 21.2734C87.043 18.5033 87.9428 16.2088 89.7345 14.3553L89.0155 13.6603C87.0312 15.7131 86.043 18.2623 86.043 21.2734H87.043ZM89.7321 14.3578C91.5473 12.5056 93.8056 11.5781 96.543 11.5781V10.5781C93.5512 10.5781 91.0309 11.6038 89.0179 13.6578L89.7321 14.3578ZM96.543 11.5781C99.0453 11.5781 101.029 12.1526 102.536 13.2586L103.128 12.4524C101.406 11.1885 99.1968 10.5781 96.543 10.5781V11.5781ZM102.375 12.653L101.086 15.5631L102 15.9681L103.289 13.058L102.375 12.653ZM101.841 15.3644C100.272 14.1975 98.3791 13.625 96.1914 13.625V14.625C98.1964 14.625 99.8716 15.1462 101.245 16.1669L101.841 15.3644ZM96.1914 13.625C94.2456 13.625 92.6492 14.3818 91.4459 15.8825L92.226 16.5081C93.2362 15.2484 94.5435 14.625 96.1914 14.625V13.625ZM91.4474 15.8806C90.31 17.2848 89.7539 19.0155 89.7539 21.0391H90.7539C90.7539 19.2085 91.2525 17.71 92.2245 16.51L91.4474 15.8806ZM89.7539 21.0391C89.7539 23.2024 90.3342 25.0274 91.5284 26.4745L92.2997 25.838C91.2803 24.6028 90.7539 23.0163 90.7539 21.0391H89.7539ZM91.5282 26.4742C92.7937 28.0099 94.538 28.7656 96.6992 28.7656V27.7656C94.798 27.7656 93.3521 27.1151 92.2999 25.8383L91.5282 26.4742ZM96.6992 28.7656C98.8127 28.7656 100.88 28.2637 102.897 27.2687L102.455 26.3719C100.565 27.304 98.6483 27.7656 96.6992 27.7656V28.7656ZM109.141 14.0078L108.802 13.6399L108.802 13.6402L109.141 14.0078ZM124.316 13.8711L124.657 13.5049L124.657 13.5047L124.316 13.8711ZM124.102 28.4805L123.765 28.1107L123.763 28.1125L124.102 28.4805ZM108.906 28.6172L109.248 28.2518L109.247 28.2509L108.906 28.6172ZM110.137 24.0273L109.675 24.2201L109.676 24.2226L110.137 24.0273ZM111.641 26.2734L111.287 26.627L111.291 26.6304L111.641 26.2734ZM121.68 26.2734L121.328 25.9181L121.324 25.9216L121.68 26.2734ZM111.562 16.2148L111.918 16.5667L111.92 16.5649L111.562 16.2148ZM106.379 21.4102C106.379 19.9936 106.658 18.6923 107.211 17.4995L106.304 17.0786C105.686 18.4119 105.379 19.858 105.379 21.4102H106.379ZM107.211 17.4995C107.77 16.2946 108.526 15.2546 109.48 14.3754L108.802 13.6402C107.75 14.61 106.917 15.7575 106.304 17.0786L107.211 17.4995ZM109.479 14.3757C111.506 12.5107 113.936 11.5781 116.797 11.5781V10.5781C113.694 10.5781 111.02 11.5987 108.802 13.6399L109.479 14.3757ZM116.797 11.5781C119.692 11.5781 122.073 12.4702 123.976 14.2375L124.657 13.5047C122.549 11.548 119.917 10.5781 116.797 10.5781V11.5781ZM123.976 14.2373C125.898 16.0235 126.863 18.3155 126.863 21.1562H127.863C127.863 18.0595 126.798 15.4947 124.657 13.5049L123.976 14.2373ZM126.863 21.1562C126.863 23.9171 125.837 26.2249 123.765 28.1107L124.438 28.8502C126.715 26.7777 127.863 24.2027 127.863 21.1562H126.863ZM123.763 28.1125C121.75 29.9636 119.321 30.8906 116.445 30.8906V31.8906C119.559 31.8906 122.234 30.8776 124.44 28.8485L123.763 28.1125ZM116.445 30.8906C113.508 30.8906 111.122 30.0033 109.248 28.2518L108.565 28.9826C110.648 30.929 113.289 31.8906 116.445 31.8906V30.8906ZM109.247 28.2509C107.337 26.477 106.379 24.2108 106.379 21.4102H105.379C105.379 24.4689 106.439 27.0074 108.566 28.9835L109.247 28.2509ZM109.09 21.1953C109.09 22.2722 109.283 23.2823 109.675 24.2201L110.598 23.8345C110.261 23.0276 110.09 22.1497 110.09 21.1953H109.09ZM109.676 24.2226C110.065 25.139 110.602 25.942 111.287 26.627L111.994 25.9199C111.403 25.3289 110.937 24.6344 110.597 23.8321L109.676 24.2226ZM111.291 26.6304C112.748 28.0596 114.597 28.7656 116.797 28.7656V27.7656C114.83 27.7656 113.242 27.1435 111.991 25.9165L111.291 26.6304ZM116.797 28.7656C118.865 28.7656 120.622 28.0522 122.035 26.6252L121.324 25.9216C120.107 27.151 118.609 27.7656 116.797 27.7656V28.7656ZM122.031 26.6287C123.448 25.2264 124.152 23.4615 124.152 21.3711H123.152C123.152 23.213 122.542 24.7163 121.328 25.9181L122.031 26.6287ZM124.152 21.3711C124.152 19.1906 123.423 17.3482 121.955 15.8808L121.248 16.5879C122.515 17.8549 123.152 19.437 123.152 21.3711H124.152ZM121.955 15.8808C120.498 14.4242 118.648 13.7031 116.445 13.7031V14.7031C118.409 14.7031 119.996 15.3362 121.248 16.5879L121.955 15.8808ZM116.445 13.7031C114.376 13.7031 112.618 14.4243 111.205 15.8648L111.92 16.5649C113.137 15.3231 114.635 14.7031 116.445 14.7031V13.7031ZM111.207 15.863C109.793 17.2914 109.09 19.081 109.09 21.1953H110.09C110.09 19.3253 110.702 17.7945 111.918 16.5667L111.207 15.863ZM149.668 17.0156L149.246 16.7472C149.177 16.856 149.152 16.9873 149.178 17.1137L149.668 17.0156ZM150 31V31.5C150.276 31.5 150.5 31.2761 150.5 31H150ZM146.289 31H145.789C145.789 31.2761 146.013 31.5 146.289 31.5V31ZM145.684 16.4297L145.238 16.6562L145.239 16.6592L145.684 16.4297ZM144.18 14.7305L143.922 15.1594L143.934 15.1658L144.18 14.7305ZM140.254 14.3984L140.133 13.9134L140.13 13.9141L140.254 14.3984ZM138.789 14.9453L138.565 14.4979L138.553 14.5043L138.789 14.9453ZM136.523 16.9766L136.106 16.7007C136.052 16.7825 136.023 16.8785 136.023 16.9766H136.523ZM136.523 31V31.5C136.8 31.5 137.023 31.2761 137.023 31H136.523ZM132.812 31H132.312C132.312 31.2761 132.536 31.5 132.812 31.5V31ZM132.812 11.4688V10.9688C132.536 10.9688 132.312 11.1926 132.312 11.4688H132.812ZM135.645 11.4688L136.124 11.3274C136.061 11.1147 135.866 10.9688 135.645 10.9688V11.4688ZM136.191 13.3242L135.712 13.4656C135.76 13.6296 135.889 13.7575 136.053 13.8048C136.218 13.852 136.395 13.812 136.523 13.6987L136.191 13.3242ZM148.613 14.0859L148.189 14.3504C148.273 14.4853 148.416 14.5722 148.575 14.5844C148.733 14.5967 148.888 14.5329 148.992 14.4126L148.613 14.0859ZM153.145 11.3516L153.272 11.835L153.277 11.8337L153.145 11.3516ZM161.523 13.6562L161.93 13.3656L161.926 13.3603L161.523 13.6562ZM163.184 31V31.5C163.46 31.5 163.684 31.2761 163.684 31H163.184ZM159.473 31H158.973C158.973 31.2761 159.197 31.5 159.473 31.5V31ZM158.867 16.4297L158.421 16.6562L158.423 16.6592L158.867 16.4297ZM157.363 14.7305L157.106 15.1594L157.117 15.1658L157.363 14.7305ZM153.438 14.418L153.559 14.9032L153.57 14.9001L153.438 14.418ZM151.953 14.9844L152.179 15.4305L152.187 15.4266L151.953 14.9844ZM149.178 17.1137C149.391 18.1804 149.5 19.4289 149.5 20.8633H150.5C150.5 19.381 150.388 18.0644 150.158 16.9176L149.178 17.1137ZM149.5 20.8633V31H150.5V20.8633H149.5ZM150 30.5H146.289V31.5H150V30.5ZM146.789 31V21.0977H145.789V31H146.789ZM146.789 21.0977C146.789 19.92 146.738 18.9252 146.634 18.1183C146.53 17.3205 146.37 16.668 146.128 16.2002L145.239 16.6592C145.401 16.9726 145.544 17.4887 145.642 18.2469C145.739 18.9961 145.789 19.9445 145.789 21.0977H146.789ZM146.129 16.2032C145.694 15.3468 145.132 14.6946 144.426 14.2952L143.934 15.1658C144.425 15.4434 144.866 15.9241 145.238 16.6562L146.129 16.2032ZM144.437 14.3017C143.765 13.8987 143.004 13.7031 142.168 13.7031V14.7031C142.842 14.7031 143.422 14.8591 143.922 15.1592L144.437 14.3017ZM142.168 13.7031C141.387 13.7031 140.706 13.7701 140.133 13.9134L140.375 14.8835C140.844 14.7663 141.438 14.7031 142.168 14.7031V13.7031ZM140.13 13.9141C139.588 14.0531 139.066 14.2479 138.565 14.4981L139.013 15.3925C139.45 15.174 139.905 15.0042 140.378 14.8828L140.13 13.9141ZM138.553 14.5043C137.534 15.0487 136.715 15.7808 136.106 16.7007L136.94 17.2524C137.452 16.4796 138.143 15.8575 139.025 15.3863L138.553 14.5043ZM136.023 16.9766V31H137.023V16.9766H136.023ZM136.523 30.5H132.812V31.5H136.523V30.5ZM133.312 31V11.4688H132.312V31H133.312ZM132.812 11.9688H135.645V10.9688H132.812V11.9688ZM135.165 11.6101L135.712 13.4656L136.671 13.1829L136.124 11.3274L135.165 11.6101ZM136.523 13.6987C138.126 12.2808 139.968 11.5781 142.07 11.5781V10.5781C139.72 10.5781 137.643 11.3728 135.86 12.9497L136.523 13.6987ZM142.07 11.5781C145.071 11.5781 147.059 12.5374 148.189 14.3504L149.038 13.8214C147.668 11.6241 145.293 10.5781 142.07 10.5781V11.5781ZM148.992 14.4126C150.065 13.1688 151.484 12.3069 153.272 11.835L153.017 10.8681C151.055 11.3858 149.453 12.3468 148.235 13.7593L148.992 14.4126ZM153.277 11.8337C153.879 11.6684 154.727 11.5781 155.84 11.5781V10.5781C154.687 10.5781 153.738 10.6701 153.012 10.8694L153.277 11.8337ZM155.84 11.5781C156.919 11.5781 157.932 11.7862 158.882 12.2005L159.282 11.2838C158.201 10.8127 157.052 10.5781 155.84 10.5781V11.5781ZM158.882 12.2005C159.823 12.6106 160.564 13.1951 161.12 13.9522L161.926 13.3603C161.258 12.4508 160.372 11.7592 159.282 11.2838L158.882 12.2005ZM161.117 13.9469C162.133 15.3701 162.684 17.6461 162.684 20.8633H163.684C163.684 17.5701 163.127 15.0413 161.93 13.3656L161.117 13.9469ZM162.684 20.8633V31H163.684V20.8633H162.684ZM163.184 30.5H159.473V31.5H163.184V30.5ZM159.973 31V21.0977H158.973V31H159.973ZM159.973 21.0977C159.973 19.92 159.922 18.9252 159.817 18.1183C159.714 17.3205 159.553 16.668 159.311 16.2002L158.423 16.6592C158.585 16.9726 158.727 17.4887 158.825 18.2469C158.923 18.9961 158.973 19.9445 158.973 21.0977H159.973ZM159.313 16.2032C158.878 15.3468 158.316 14.6946 157.609 14.2952L157.117 15.1658C157.609 15.4434 158.049 15.9241 158.421 16.6562L159.313 16.2032ZM157.621 14.3017C156.949 13.8987 156.188 13.7031 155.352 13.7031V14.7031C156.026 14.7031 156.606 14.8591 157.106 15.1592L157.621 14.3017ZM155.352 13.7031C154.568 13.7031 153.882 13.7771 153.305 13.9359L153.57 14.9001C154.034 14.7724 154.625 14.7031 155.352 14.7031V13.7031ZM153.316 13.9329C152.757 14.0727 152.224 14.2758 151.72 14.5422L152.187 15.4266C152.619 15.1982 153.076 15.0236 153.559 14.903L153.316 13.9329ZM151.727 14.5384C150.677 15.0706 149.845 15.8065 149.246 16.7472L150.09 17.2841C150.585 16.506 151.276 15.8878 152.179 15.4304L151.727 14.5384ZM185.488 15.8047L185.019 15.9784L185.022 15.9853L185.488 15.8047ZM185.703 23.1875V23.6875C185.948 23.6875 186.156 23.5108 186.196 23.2697L185.703 23.1875ZM172.109 23.1875V22.6875C171.961 22.6875 171.82 22.7533 171.725 22.8671C171.631 22.981 171.591 23.1311 171.617 23.2769L172.109 23.1875ZM174.023 26.918L173.685 27.2858L173.687 27.2882L174.023 26.918ZM184.883 26.9375L185.371 26.8283C185.338 26.6825 185.242 26.5589 185.109 26.4914C184.975 26.4239 184.819 26.4196 184.682 26.4796L184.883 26.9375ZM185.508 29.7305L185.759 30.1625C185.948 30.0528 186.043 29.8339 185.996 29.6213L185.508 29.7305ZM179.766 31.2734L179.716 30.7758L179.709 30.7766L179.766 31.2734ZM170.586 28.7734L170.219 29.1127L170.219 29.1128L170.586 28.7734ZM171.055 14.0078L170.698 13.6578L170.695 13.6603L171.055 14.0078ZM182.559 20.3164V20.8164C182.82 20.8164 183.038 20.6144 183.057 20.3533L182.559 20.3164ZM182.637 19.2617L183.135 19.2987C183.136 19.2864 183.137 19.274 183.137 19.2617H182.637ZM179.961 14.5156L180.162 14.0576L180.16 14.0571L179.961 14.5156ZM175.508 14.6133L175.298 14.1595L175.295 14.1611L175.508 14.6133ZM173.711 15.9414L174.081 16.2777L174.081 16.2773L173.711 15.9414ZM171.953 20.3164L171.454 20.2797C171.444 20.4183 171.492 20.5549 171.587 20.6567C171.681 20.7586 171.814 20.8164 171.953 20.8164V20.3164ZM183.514 13.5411C184.146 14.173 184.65 14.981 185.019 15.9783L185.957 15.631C185.545 14.519 184.969 13.5822 184.221 12.8339L183.514 13.5411ZM185.022 15.9853C185.403 16.9673 185.594 18.0061 185.594 19.1055H186.594C186.594 17.8872 186.381 16.7255 185.955 15.624L185.022 15.9853ZM185.594 19.1055C185.594 20.2289 185.467 21.5608 185.21 23.1053L186.196 23.2697C186.46 21.6892 186.594 20.2998 186.594 19.1055H185.594ZM185.703 22.6875H172.109V23.6875H185.703V22.6875ZM171.617 23.2769C171.92 24.9384 172.601 26.2874 173.685 27.2857L174.362 26.5502C173.467 25.7256 172.872 24.5876 172.601 23.0981L171.617 23.2769ZM173.687 27.2882C174.797 28.2959 176.333 28.7656 178.223 28.7656V27.7656C176.492 27.7656 175.229 27.3369 174.36 26.5478L173.687 27.2882ZM178.223 28.7656C180.707 28.7656 182.996 28.3112 185.084 27.3954L184.682 26.4796C182.733 27.3346 180.582 27.7656 178.223 27.7656V28.7656ZM184.395 27.0467L185.02 29.8397L185.996 29.6213L185.371 26.8283L184.395 27.0467ZM185.256 29.2984C184.003 30.0282 182.17 30.5318 179.716 30.7759L179.815 31.771C182.335 31.5203 184.33 30.9952 185.759 30.1625L185.256 29.2984ZM179.709 30.7766C179.046 30.8518 178.168 30.8906 177.07 30.8906V31.8906C178.186 31.8906 179.106 31.8514 179.822 31.7703L179.709 30.7766ZM177.07 30.8906C176.031 30.8906 174.93 30.6828 173.765 30.257L173.422 31.1962C174.679 31.6557 175.896 31.8906 177.07 31.8906V30.8906ZM173.765 30.257C172.621 29.8387 171.688 29.2294 170.953 28.4341L170.219 29.1128C171.072 30.0363 172.144 30.729 173.422 31.1962L173.765 30.257ZM170.953 28.4342C169.493 26.8533 168.723 24.4945 168.723 21.2734H167.723C167.723 24.6409 168.528 27.2821 170.219 29.1127L170.953 28.4342ZM168.723 21.2734C168.723 18.5033 169.622 16.2088 171.414 14.3553L170.695 13.6603C168.711 15.7131 167.723 18.2623 167.723 21.2734H168.723ZM171.412 14.3578C173.227 12.5056 175.485 11.5781 178.223 11.5781V10.5781C175.231 10.5781 172.711 11.6038 170.698 13.6578L171.412 14.3578ZM178.223 11.5781C180.473 11.5781 182.218 12.2457 183.514 13.5411L184.221 12.8339C182.704 11.3168 180.686 10.5781 178.223 10.5781V11.5781ZM183.057 20.3533L183.135 19.2987L182.138 19.2248L182.06 20.2795L183.057 20.3533ZM183.137 19.2617C183.137 18.0103 182.903 16.9283 182.403 16.0425C181.9 15.1501 181.145 14.4884 180.162 14.0576L179.76 14.9736C180.561 15.3241 181.143 15.844 181.532 16.5336C181.925 17.2299 182.137 18.1303 182.137 19.2617H183.137ZM180.16 14.0571C179.484 13.7629 178.696 13.625 177.812 13.625V14.625C178.595 14.625 179.24 14.7475 179.762 14.9742L180.16 14.0571ZM177.812 13.625C176.912 13.625 176.072 13.8013 175.298 14.1595L175.718 15.067C176.35 14.7742 177.046 14.625 177.812 14.625V13.625ZM175.295 14.1611C174.545 14.5144 173.893 14.9964 173.341 15.6055L174.081 16.2773C174.544 15.7666 175.09 15.3632 175.721 15.0655L175.295 14.1611ZM173.341 15.6051C172.213 16.8455 171.592 18.4146 171.454 20.2797L172.452 20.3531C172.575 18.6766 173.125 17.329 174.081 16.2777L173.341 15.6051ZM171.953 20.8164H182.559V19.8164H171.953V20.8164ZM202.598 14.4766H203.098C203.098 14.2004 202.874 13.9766 202.598 13.9766V14.4766ZM200.508 14.4766H200.008C200.008 14.7527 200.232 14.9766 200.508 14.9766V14.4766ZM200.508 12.0547L200.207 11.6551C200.082 11.7495 200.008 11.8975 200.008 12.0547H200.508ZM205.312 8.44141V7.94141C205.204 7.94141 205.099 7.97664 205.012 8.0418L205.312 8.44141ZM206.309 8.44141H206.809C206.809 8.16526 206.585 7.94141 206.309 7.94141V8.44141ZM206.309 11.4688H205.809C205.809 11.7449 206.032 11.9688 206.309 11.9688V11.4688ZM211.895 11.4688H212.395C212.395 11.1926 212.171 10.9688 211.895 10.9688V11.4688ZM211.895 14.4766V14.9766C212.171 14.9766 212.395 14.7527 212.395 14.4766H211.895ZM206.309 14.4766V13.9766C206.032 13.9766 205.809 14.2004 205.809 14.4766H206.309ZM207.148 26.8984L206.738 27.1834L206.74 27.1865L207.148 26.8984ZM210.43 28.3633L210.919 28.4683C210.948 28.3301 210.918 28.1859 210.836 28.0712C210.753 27.9565 210.626 27.8821 210.485 27.8664L210.43 28.3633ZM209.863 31L209.926 31.496C210.137 31.4694 210.308 31.3126 210.352 31.105L209.863 31ZM202.93 26.3711L203.42 26.273L203.419 26.2696L202.93 26.3711ZM202.598 13.9766H200.508V14.9766H202.598V13.9766ZM201.008 14.4766V12.0547H200.008V14.4766H201.008ZM200.808 12.4543L205.613 8.84102L205.012 8.0418L200.207 11.6551L200.808 12.4543ZM205.312 8.94141H206.309V7.94141H205.312V8.94141ZM205.809 8.44141V11.4688H206.809V8.44141H205.809ZM206.309 11.9688H211.895V10.9688H206.309V11.9688ZM211.395 11.4688V14.4766H212.395V11.4688H211.395ZM211.895 13.9766H206.309V14.9766H211.895V13.9766ZM205.809 14.4766V22.3672H206.809V14.4766H205.809ZM205.809 22.3672C205.809 23.4924 205.88 24.4561 206.027 25.2513C206.173 26.041 206.401 26.6981 206.738 27.1834L207.559 26.6135C207.336 26.2915 207.144 25.7897 207.01 25.069C206.878 24.3538 206.809 23.4555 206.809 22.3672H205.809ZM206.74 27.1865C207.424 28.1571 208.698 28.6724 210.374 28.8602L210.485 27.8664C208.906 27.6896 207.993 27.2283 207.557 26.6104L206.74 27.1865ZM209.941 28.2583L209.374 30.895L210.352 31.105L210.919 28.4683L209.941 28.2583ZM209.8 30.504C207.917 30.7425 206.499 30.4795 205.478 29.798C204.464 29.121 203.761 27.9758 203.42 26.273L202.439 26.4692C202.815 28.3471 203.625 29.7637 204.923 30.6297C206.213 31.4912 207.903 31.7523 209.926 31.496L209.8 30.504ZM203.419 26.2696C203.206 25.2394 203.098 24.1214 203.098 22.9141H202.098C202.098 24.1807 202.211 25.3674 202.44 26.4726L203.419 26.2696ZM203.098 22.9141V14.4766H202.098V22.9141H203.098ZM218.047 14.0078L217.708 13.6399L217.708 13.6402L218.047 14.0078ZM233.223 13.8711L233.563 13.5049L233.563 13.5047L233.223 13.8711ZM233.008 28.4805L232.671 28.1107L232.669 28.1125L233.008 28.4805ZM217.812 28.6172L218.154 28.2518L218.153 28.2509L217.812 28.6172ZM219.043 24.0273L218.582 24.2201L218.583 24.2226L219.043 24.0273ZM220.547 26.2734L220.193 26.627L220.197 26.6304L220.547 26.2734ZM230.586 26.2734L230.234 25.9181L230.231 25.9216L230.586 26.2734ZM220.469 16.2148L220.824 16.5667L220.826 16.5649L220.469 16.2148ZM215.285 21.4102C215.285 19.9936 215.564 18.6923 216.118 17.4995L215.21 17.0786C214.592 18.4119 214.285 19.858 214.285 21.4102H215.285ZM216.118 17.4995C216.677 16.2946 217.432 15.2546 218.386 14.3754L217.708 13.6402C216.656 14.61 215.823 15.7575 215.21 17.0786L216.118 17.4995ZM218.385 14.3757C220.412 12.5107 222.842 11.5781 225.703 11.5781V10.5781C222.601 10.5781 219.926 11.5987 217.708 13.6399L218.385 14.3757ZM225.703 11.5781C228.598 11.5781 230.979 12.4702 232.882 14.2375L233.563 13.5047C231.456 11.548 228.824 10.5781 225.703 10.5781V11.5781ZM232.882 14.2373C234.804 16.0235 235.77 18.3155 235.77 21.1562H236.77C236.77 18.0595 235.704 15.4947 233.563 13.5049L232.882 14.2373ZM235.77 21.1562C235.77 23.9171 234.743 26.2249 232.671 28.1107L233.344 28.8502C235.621 26.7777 236.77 24.2027 236.77 21.1562H235.77ZM232.669 28.1125C230.657 29.9636 228.227 30.8906 225.352 30.8906V31.8906C228.466 31.8906 231.14 30.8776 233.346 28.8485L232.669 28.1125ZM225.352 30.8906C222.414 30.8906 220.029 30.0033 218.154 28.2518L217.471 28.9826C219.555 30.929 222.195 31.8906 225.352 31.8906V30.8906ZM218.153 28.2509C216.243 26.477 215.285 24.2108 215.285 21.4102H214.285C214.285 24.4689 215.345 27.0074 217.472 28.9835L218.153 28.2509ZM217.996 21.1953C217.996 22.2722 218.19 23.2823 218.582 24.2201L219.504 23.8345C219.167 23.0276 218.996 22.1497 218.996 21.1953H217.996ZM218.583 24.2226C218.971 25.139 219.508 25.942 220.193 26.627L220.9 25.9199C220.309 25.3289 219.844 24.6344 219.503 23.8321L218.583 24.2226ZM220.197 26.6304C221.654 28.0596 223.503 28.7656 225.703 28.7656V27.7656C223.737 27.7656 222.148 27.1435 220.897 25.9165L220.197 26.6304ZM225.703 28.7656C227.771 28.7656 229.528 28.0522 230.941 26.6252L230.231 25.9216C229.013 27.151 227.515 27.7656 225.703 27.7656V28.7656ZM230.938 26.6287C232.354 25.2264 233.059 23.4615 233.059 21.3711H232.059C232.059 23.213 231.448 24.7163 230.234 25.9181L230.938 26.6287ZM233.059 21.3711C233.059 19.1906 232.329 17.3482 230.861 15.8808L230.154 16.5879C231.421 17.8549 232.059 19.437 232.059 21.3711H233.059ZM230.861 15.8808C229.405 14.4242 227.555 13.7031 225.352 13.7031V14.7031C227.315 14.7031 228.903 15.3362 230.154 16.5879L230.861 15.8808ZM225.352 13.7031C223.282 13.7031 221.524 14.4243 220.112 15.8648L220.826 16.5649C222.043 15.3231 223.541 14.7031 225.352 14.7031V13.7031ZM220.113 15.863C218.699 17.2914 217.996 19.081 217.996 21.1953H218.996C218.996 19.3253 219.608 17.7945 220.824 16.5667L220.113 15.863ZM252.52 3.34375V2.84375C252.243 2.84375 252.02 3.06761 252.02 3.34375H252.52ZM256.133 3.34375H256.633C256.633 3.06761 256.409 2.84375 256.133 2.84375V3.34375ZM261.152 27.4062L260.951 27.864L260.954 27.8653L261.152 27.4062ZM269.199 27.4648L269.009 27.0025L269.007 27.0033L269.199 27.4648ZM271.934 25.4922L271.551 25.17L271.549 25.1721L271.934 25.4922ZM274.023 3.34375V2.84375C273.747 2.84375 273.523 3.06761 273.523 3.34375H274.023ZM277.637 3.34375H278.137C278.137 3.06761 277.913 2.84375 277.637 2.84375V3.34375ZM270.469 30.4531L270.652 30.9184L270.654 30.9177L270.469 30.4531ZM259.512 30.4922L259.327 30.9567L259.331 30.9586L259.512 30.4922ZM255.664 27.875L256.034 27.5389L256.033 27.5375L255.664 27.875ZM252.52 3.84375H256.133V2.84375H252.52V3.84375ZM255.633 3.34375V17.6602H256.633V3.34375H255.633ZM255.633 17.6602C255.633 22.7965 257.354 26.2825 260.951 27.864L261.354 26.9485C258.258 25.5873 256.633 22.5759 256.633 17.6602H255.633ZM260.954 27.8653C262.176 28.393 263.601 28.6484 265.215 28.6484V27.6484C263.704 27.6484 262.42 27.4091 261.351 26.9472L260.954 27.8653ZM265.215 28.6484C266.823 28.6484 268.221 28.4142 269.392 27.9264L269.007 27.0033C267.99 27.427 266.731 27.6484 265.215 27.6484V28.6484ZM269.39 27.9272C270.566 27.4427 271.546 26.7385 272.318 25.8123L271.549 25.1721C270.889 25.9647 270.046 26.5755 269.009 27.0025L269.39 27.9272ZM272.316 25.8143C273.814 24.0365 274.523 21.4873 274.523 18.2461H273.523C273.523 21.3591 272.84 23.6405 271.551 25.17L272.316 25.8143ZM274.523 18.2461V3.34375H273.523V18.2461H274.523ZM274.023 3.84375H277.637V2.84375H274.023V3.84375ZM277.137 3.34375V17.6602H278.137V3.34375H277.137ZM277.137 17.6602C277.137 20.9176 276.549 23.5491 275.409 25.5847C274.273 27.6113 272.573 29.078 270.284 29.9885L270.654 30.9177C273.143 29.9272 275.027 28.3112 276.281 26.0735C277.53 23.8448 278.137 21.0303 278.137 17.6602H277.137ZM270.286 29.9878C268.767 30.5855 266.995 30.8906 264.961 30.8906V31.8906C267.094 31.8906 268.994 31.5708 270.652 30.9184L270.286 29.9878ZM264.961 30.8906C262.924 30.8906 261.171 30.5977 259.692 30.0258L259.331 30.9586C260.951 31.5846 262.831 31.8906 264.961 31.8906V30.8906ZM259.697 30.0277C258.225 29.4415 257.008 28.6109 256.034 27.5389L255.294 28.2111C256.378 29.4047 257.725 30.3189 259.327 30.9567L259.697 30.0277ZM256.033 27.5375C254.046 25.3649 253.02 22.2907 253.02 18.2461H252.02C252.02 22.4567 253.09 25.8018 255.295 28.2125L256.033 27.5375ZM253.02 18.2461V3.34375H252.02V18.2461H253.02ZM282.305 28.1094L281.913 27.7981C281.843 27.8866 281.805 27.9963 281.805 28.1094H282.305ZM293.242 14.3594L293.633 14.6706C293.753 14.5204 293.776 14.315 293.693 14.1422C293.609 13.9693 293.434 13.8594 293.242 13.8594V14.3594ZM282.695 14.3594H282.195C282.195 14.6355 282.419 14.8594 282.695 14.8594V14.3594ZM282.695 11.4688V10.9688C282.419 10.9688 282.195 11.1926 282.195 11.4688H282.695ZM297.383 11.4688H297.883C297.883 11.1926 297.659 10.9688 297.383 10.9688V11.4688ZM297.383 14.3594L297.774 14.6706C297.844 14.5822 297.883 14.4724 297.883 14.3594H297.383ZM286.445 28.1094L286.054 27.7981C285.935 27.9483 285.912 28.1537 285.995 28.3266C286.078 28.4995 286.253 28.6094 286.445 28.6094V28.1094ZM297.734 28.1094H298.234C298.234 27.8332 298.011 27.6094 297.734 27.6094V28.1094ZM297.734 31V31.5C298.011 31.5 298.234 31.2761 298.234 31H297.734ZM282.305 31H281.805C281.805 31.2761 282.029 31.5 282.305 31.5V31ZM282.696 28.4206L293.633 14.6706L292.851 14.0481L281.913 27.7981L282.696 28.4206ZM293.242 13.8594H282.695V14.8594H293.242V13.8594ZM283.195 14.3594V11.4688H282.195V14.3594H283.195ZM282.695 11.9688H297.383V10.9688H282.695V11.9688ZM296.883 11.4688V14.3594H297.883V11.4688H296.883ZM296.992 14.0481L286.054 27.7981L286.837 28.4206L297.774 14.6706L296.992 14.0481ZM286.445 28.6094H297.734V27.6094H286.445V28.6094ZM297.234 28.1094V31H298.234V28.1094H297.234ZM297.734 30.5H282.305V31.5H297.734V30.5ZM282.805 31V28.1094H281.805V31H282.805ZM306.562 13.0508H306.062C306.062 13.2401 306.169 13.4131 306.339 13.4979C306.508 13.5826 306.71 13.5645 306.862 13.4511L306.562 13.0508ZM319.668 13.8516L319.302 14.192L319.303 14.193L319.668 13.8516ZM318.516 28.5391L318.832 28.9265L318.834 28.9248L318.516 28.5391ZM302.852 30.6094H302.352C302.352 30.8374 302.506 31.0365 302.727 31.0935L302.852 30.6094ZM302.852 0.511719V0.0117188C302.575 0.0117188 302.352 0.235576 302.352 0.511719H302.852ZM306.562 0.511719H307.062C307.062 0.235576 306.839 0.0117188 306.562 0.0117188V0.511719ZM306.562 27.6016H306.062C306.062 27.7987 306.178 27.9775 306.358 28.058L306.562 27.6016ZM316.113 26.3711L316.435 26.7541L316.436 26.7534L316.113 26.3711ZM316.953 16.2539L317.344 15.9425L317.342 15.9393L316.953 16.2539ZM307.695 15.7266L307.988 16.1319L307.992 16.1293L307.695 15.7266ZM306.562 16.8984L306.143 16.6268C306.09 16.7077 306.062 16.8021 306.062 16.8984H306.562ZM306.862 13.4511C308.523 12.2085 310.524 11.5781 312.891 11.5781V10.5781C310.335 10.5781 308.118 11.2629 306.263 12.6504L306.862 13.4511ZM312.891 11.5781C315.568 11.5781 317.688 12.4565 319.302 14.192L320.034 13.5111C318.21 11.5487 315.812 10.5781 312.891 10.5781V11.5781ZM319.303 14.193C320.882 15.8822 321.688 18.0836 321.688 20.8438H322.688C322.688 17.8747 321.814 15.4147 320.033 13.5101L319.303 14.193ZM321.688 20.8438C321.688 23.8031 320.533 26.2279 318.198 28.1533L318.834 28.9248C321.394 26.8138 322.688 24.1084 322.688 20.8438H321.688ZM318.2 28.1516C315.968 29.9716 313.245 30.8906 310 30.8906V31.8906C313.448 31.8906 316.402 30.9086 318.832 28.9265L318.2 28.1516ZM310 30.8906C308.552 30.8906 307.118 30.7881 305.696 30.5832L305.554 31.573C307.023 31.7848 308.505 31.8906 310 31.8906V30.8906ZM305.696 30.5832C304.243 30.3738 303.348 30.2212 302.977 30.1252L302.727 31.0935C303.162 31.2059 304.116 31.3658 305.554 31.573L305.696 30.5832ZM303.352 30.6094V0.511719H302.352V30.6094H303.352ZM302.852 1.01172H306.562V0.0117188H302.852V1.01172ZM306.062 0.511719V13.0508H307.062V0.511719H306.062ZM306.358 28.058C307.425 28.5351 308.656 28.7656 310.039 28.7656V27.7656C308.766 27.7656 307.679 27.5534 306.767 27.1452L306.358 28.058ZM310.039 28.7656C311.419 28.7656 312.639 28.5984 313.691 28.2523L313.379 27.3024C312.452 27.6073 311.342 27.7656 310.039 27.7656V28.7656ZM313.691 28.2523C314.736 27.9088 315.652 27.4106 316.435 26.7541L315.792 25.9881C315.116 26.5555 314.314 26.9949 313.379 27.3024L313.691 28.2523ZM316.436 26.7534C318.132 25.3231 318.977 23.4146 318.977 21.0781H317.977C317.977 23.1427 317.245 24.7628 315.791 25.9888L316.436 26.7534ZM318.977 21.0781C318.977 19.0472 318.443 17.3231 317.344 15.9425L316.562 16.5653C317.494 17.7368 317.977 19.2288 317.977 21.0781H318.977ZM317.342 15.9393C316.139 14.4539 314.557 13.7031 312.637 13.7031V14.7031C314.258 14.7031 315.553 15.3195 316.565 16.5685L317.342 15.9393ZM312.637 13.7031C310.629 13.7031 308.875 14.2377 307.399 15.3238L307.992 16.1293C309.276 15.1842 310.816 14.7031 312.637 14.7031V13.7031ZM307.403 15.3212C306.888 15.6926 306.466 16.1272 306.143 16.6268L306.982 17.1701C307.232 16.7842 307.565 16.4376 307.988 16.1319L307.403 15.3212ZM306.062 16.8984V27.6016H307.062V16.8984H306.062ZM343.184 15.8047L342.715 15.9784L342.717 15.9853L343.184 15.8047ZM343.398 23.1875V23.6875C343.643 23.6875 343.851 23.5108 343.892 23.2697L343.398 23.1875ZM329.805 23.1875V22.6875C329.656 22.6875 329.516 22.7533 329.421 22.8671C329.326 22.981 329.286 23.1311 329.313 23.2769L329.805 23.1875ZM331.719 26.918L331.38 27.2858L331.383 27.2882L331.719 26.918ZM342.578 26.9375L343.066 26.8283C343.033 26.6825 342.937 26.5589 342.804 26.4914C342.671 26.4239 342.514 26.4196 342.377 26.4796L342.578 26.9375ZM343.203 29.7305L343.455 30.1625C343.643 30.0528 343.739 29.8339 343.691 29.6213L343.203 29.7305ZM337.461 31.2734L337.411 30.7758L337.405 30.7766L337.461 31.2734ZM328.281 28.7734L327.914 29.1127L327.914 29.1128L328.281 28.7734ZM328.75 14.0078L328.393 13.6578L328.391 13.6603L328.75 14.0078ZM340.254 20.3164V20.8164C340.516 20.8164 340.733 20.6144 340.753 20.3533L340.254 20.3164ZM340.332 19.2617L340.831 19.2987C340.832 19.2864 340.832 19.274 340.832 19.2617H340.332ZM337.656 14.5156L337.857 14.0576L337.856 14.0571L337.656 14.5156ZM333.203 14.6133L332.993 14.1595L332.99 14.1611L333.203 14.6133ZM331.406 15.9414L331.776 16.2777L331.777 16.2773L331.406 15.9414ZM329.648 20.3164L329.15 20.2797C329.14 20.4183 329.188 20.5549 329.282 20.6567C329.377 20.7586 329.509 20.8164 329.648 20.8164V20.3164ZM341.209 13.5411C341.841 14.173 342.345 14.981 342.715 15.9783L343.652 15.631C343.241 14.519 342.664 13.5822 341.916 12.8339L341.209 13.5411ZM342.717 15.9853C343.098 16.9673 343.289 18.0061 343.289 19.1055H344.289C344.289 17.8872 344.077 16.7255 343.65 15.624L342.717 15.9853ZM343.289 19.1055C343.289 20.2289 343.163 21.5608 342.905 23.1053L343.892 23.2697C344.155 21.6892 344.289 20.2998 344.289 19.1055H343.289ZM343.398 22.6875H329.805V23.6875H343.398V22.6875ZM329.313 23.2769C329.615 24.9384 330.296 26.2874 331.38 27.2857L332.057 26.5502C331.162 25.7256 330.567 24.5876 330.297 23.0981L329.313 23.2769ZM331.383 27.2882C332.493 28.2959 334.028 28.7656 335.918 28.7656V27.7656C334.188 27.7656 332.924 27.3369 332.055 26.5478L331.383 27.2882ZM335.918 28.7656C338.402 28.7656 340.691 28.3112 342.779 27.3954L342.377 26.4796C340.428 27.3346 338.278 27.7656 335.918 27.7656V28.7656ZM342.09 27.0467L342.715 29.8397L343.691 29.6213L343.066 26.8283L342.09 27.0467ZM342.951 29.2984C341.699 30.0282 339.866 30.5318 337.411 30.7759L337.51 31.771C340.03 31.5203 342.025 30.9952 343.455 30.1625L342.951 29.2984ZM337.405 30.7766C336.741 30.8518 335.863 30.8906 334.766 30.8906V31.8906C335.882 31.8906 336.801 31.8514 337.517 31.7703L337.405 30.7766ZM334.766 30.8906C333.726 30.8906 332.626 30.6828 331.461 30.257L331.117 31.1962C332.374 31.6557 333.592 31.8906 334.766 31.8906V30.8906ZM331.461 30.257C330.317 29.8387 329.383 29.2294 328.648 28.4341L327.914 29.1128C328.768 30.0363 329.84 30.729 331.117 31.1962L331.461 30.257ZM328.649 28.4342C327.188 26.8533 326.418 24.4945 326.418 21.2734H325.418C325.418 24.6409 326.223 27.2821 327.914 29.1127L328.649 28.4342ZM326.418 21.2734C326.418 18.5033 327.318 16.2088 329.109 14.3553L328.391 13.6603C326.406 15.7131 325.418 18.2623 325.418 21.2734H326.418ZM329.107 14.3578C330.922 12.5056 333.181 11.5781 335.918 11.5781V10.5781C332.926 10.5781 330.406 11.6038 328.393 13.6578L329.107 14.3578ZM335.918 11.5781C338.169 11.5781 339.914 12.2457 341.209 13.5411L341.916 12.8339C340.399 11.3168 338.381 10.5781 335.918 10.5781V11.5781ZM340.753 20.3533L340.831 19.2987L339.833 19.2248L339.755 20.2795L340.753 20.3533ZM340.832 19.2617C340.832 18.0103 340.598 16.9283 340.099 16.0425C339.595 15.1501 338.84 14.4884 337.857 14.0576L337.456 14.9736C338.256 15.3241 338.839 15.844 339.228 16.5336C339.62 17.2299 339.832 18.1303 339.832 19.2617H340.832ZM337.856 14.0571C337.179 13.7629 336.392 13.625 335.508 13.625V14.625C336.291 14.625 336.936 14.7475 337.457 14.9742L337.856 14.0571ZM335.508 13.625C334.608 13.625 333.767 13.8013 332.993 14.1595L333.413 15.067C334.046 14.7742 334.741 14.625 335.508 14.625V13.625ZM332.99 14.1611C332.241 14.5144 331.588 14.9964 331.036 15.6055L331.777 16.2773C332.24 15.7666 332.785 15.3632 333.416 15.0655L332.99 14.1611ZM331.036 15.6051C329.909 16.8455 329.287 18.4146 329.15 20.2797L330.147 20.3531C330.27 18.6766 330.821 17.329 331.776 16.2777L331.036 15.6051ZM329.648 20.8164H340.254V19.8164H329.648V20.8164ZM349.258 0.511719V0.0117188C348.982 0.0117188 348.758 0.235576 348.758 0.511719H349.258ZM352.969 0.511719H353.469C353.469 0.235576 353.245 0.0117188 352.969 0.0117188V0.511719ZM352.969 20.0625H352.469C352.469 20.2638 352.589 20.4455 352.775 20.5235C352.961 20.6014 353.175 20.5605 353.319 20.4196L352.969 20.0625ZM361.738 11.4688V10.9688C361.607 10.9688 361.482 11.02 361.388 11.1116L361.738 11.4688ZM366.074 11.4688L366.424 11.8261C366.569 11.6839 366.614 11.4681 366.537 11.2799C366.46 11.0917 366.277 10.9688 366.074 10.9688V11.4688ZM356.895 20.4531L356.545 20.0958C356.351 20.2853 356.344 20.5944 356.528 20.7931L356.895 20.4531ZM362.363 26.3516L361.997 26.6915L362 26.6953L362.363 26.3516ZM366.504 28.3633L366.993 28.4683C367.023 28.3269 366.991 28.1792 366.904 28.0635C366.817 27.9477 366.685 27.8752 366.54 27.8646L366.504 28.3633ZM365.938 31L366.006 31.4952C366.214 31.4663 366.382 31.3104 366.426 31.105L365.938 31ZM361.133 29.9062L360.814 30.2915L360.818 30.2947L361.133 29.9062ZM360.02 28.832L360.391 28.4969L360.386 28.4924L360.02 28.832ZM352.969 21.2148L353.336 20.8752C353.196 20.7242 352.978 20.6742 352.786 20.7493C352.595 20.8244 352.469 21.0091 352.469 21.2148H352.969ZM352.969 31V31.5C353.245 31.5 353.469 31.2761 353.469 31H352.969ZM349.258 31H348.758C348.758 31.2761 348.982 31.5 349.258 31.5V31ZM349.258 1.01172H352.969V0.0117188H349.258V1.01172ZM352.469 0.511719V20.0625H353.469V0.511719H352.469ZM353.319 20.4196L362.088 11.8259L361.388 11.1116L352.619 19.7054L353.319 20.4196ZM361.738 11.9688H366.074V10.9688H361.738V11.9688ZM365.724 11.1114L356.545 20.0958L357.244 20.8105L366.424 11.8261L365.724 11.1114ZM356.528 20.7931L361.997 26.6915L362.73 26.0116L357.261 20.1132L356.528 20.7931ZM362 26.6953C363.24 28.0049 364.735 28.7352 366.467 28.8619L366.54 27.8646C365.07 27.757 363.804 27.1461 362.726 26.0078L362 26.6953ZM366.015 28.2583L365.449 30.895L366.426 31.105L366.993 28.4683L366.015 28.2583ZM365.869 30.5048C364.003 30.7642 362.552 30.4126 361.448 29.5178L360.818 30.2947C362.188 31.4051 363.939 31.7827 366.006 31.4952L365.869 30.5048ZM361.452 29.5211C361.094 29.2255 360.741 28.8845 360.391 28.4969L359.648 29.1672C360.028 29.5868 360.416 29.962 360.814 30.2914L361.452 29.5211ZM360.386 28.4924L353.336 20.8752L352.602 21.5545L359.653 29.1717L360.386 28.4924ZM352.469 21.2148V31H353.469V21.2148H352.469ZM352.969 30.5H349.258V31.5H352.969V30.5ZM349.758 31V0.511719H348.758V31H349.758ZM371.074 1.70312L371.422 2.06196L371.428 2.05668L371.074 1.70312ZM374.59 1.70312L374.236 2.05672L374.242 2.06192L374.59 1.70312ZM370.977 11.4688V10.9688C370.7 10.9688 370.477 11.1926 370.477 11.4688H370.977ZM374.688 11.4688H375.188C375.188 11.1926 374.964 10.9688 374.688 10.9688V11.4688ZM374.688 31V31.5C374.964 31.5 375.188 31.2761 375.188 31H374.688ZM370.977 31H370.477C370.477 31.2761 370.7 31.5 370.977 31.5V31ZM374.754 3.44141C374.754 4.06155 374.57 4.51218 374.236 4.84567L374.943 5.55277C375.495 5.00084 375.754 4.27959 375.754 3.44141H374.754ZM374.236 4.84567C373.903 5.17915 373.452 5.36328 372.832 5.36328V6.36328C373.67 6.36328 374.391 6.10471 374.943 5.55277L374.236 4.84567ZM372.832 5.36328C372.212 5.36328 371.761 5.17915 371.428 4.84567L370.721 5.55277C371.273 6.10471 371.994 6.36328 372.832 6.36328V5.36328ZM371.428 4.84567C371.094 4.51218 370.91 4.06155 370.91 3.44141H369.91C369.91 4.27959 370.169 5.00084 370.721 5.55277L371.428 4.84567ZM370.91 3.44141C370.91 2.82086 371.094 2.38042 371.422 2.06192L370.726 1.34433C370.169 1.88521 369.91 2.60362 369.91 3.44141H370.91ZM371.428 2.05668C371.761 1.72319 372.212 1.53906 372.832 1.53906V0.539062C371.994 0.539062 371.273 0.797638 370.721 1.34957L371.428 2.05668ZM372.832 1.53906C373.452 1.53906 373.903 1.72319 374.236 2.05668L374.943 1.34957C374.391 0.797638 373.67 0.539062 372.832 0.539062V1.53906ZM374.242 2.06192C374.57 2.38042 374.754 2.82086 374.754 3.44141H375.754C375.754 2.60362 375.495 1.88521 374.938 1.34433L374.242 2.06192ZM370.977 11.9688H374.688V10.9688H370.977V11.9688ZM374.188 11.4688V31H375.188V11.4688H374.188ZM374.688 30.5H370.977V31.5H374.688V30.5ZM371.477 31V11.4688H370.477V31H371.477ZM381.094 26.2148L381.377 25.8026C381.258 25.7214 381.111 25.6949 380.971 25.73C380.832 25.7651 380.715 25.8584 380.649 25.9861L381.094 26.2148ZM386.367 28.2852L386.449 27.792L386.448 27.7918L386.367 28.2852ZM390.977 27.7773L391.234 28.2061L391.237 28.2043L390.977 27.7773ZM390.391 23.5L390.599 23.0453L390.597 23.0444L390.391 23.5ZM388.516 22.7969L388.36 23.2721L388.365 23.2738L388.516 22.7969ZM386.367 22.0938L386.206 22.5671L386.212 22.5689L386.367 22.0938ZM382.559 20.3359L382.248 20.7278L382.252 20.7306L382.559 20.3359ZM381.016 18.6367L380.578 18.8796L380.583 18.8869L381.016 18.6367ZM381.133 14.1445L380.705 13.8861L380.703 13.8885L381.133 14.1445ZM382.793 12.4258L383.069 12.843L383.069 12.8424L382.793 12.4258ZM395.234 13.168L395.676 13.4029C395.794 13.1814 395.729 12.9067 395.525 12.7609L395.234 13.168ZM393.789 15.8828L393.527 16.3084C393.644 16.3809 393.786 16.4015 393.92 16.3654C394.053 16.3293 394.166 16.2397 394.23 16.1178L393.789 15.8828ZM384.531 15.2969L384.123 15.008L384.118 15.0152L384.531 15.2969ZM384.727 17.4844L384.38 17.8451L384.387 17.8518L384.727 17.4844ZM386.055 18.3242L385.849 18.7799L385.858 18.7838L386.055 18.3242ZM387.93 19.0078L387.78 19.4847L387.782 19.4855L387.93 19.0078ZM390.078 19.6719L390.237 19.1977L390.226 19.1942L390.078 19.6719ZM393.867 21.4297L394.18 21.0393L394.179 21.0385L393.867 21.4297ZM393.438 29.9258L393.162 29.5087L393.161 29.5092L393.438 29.9258ZM381.406 29.9844L381.626 29.5353L381.619 29.5318L381.406 29.9844ZM379.707 28.9102L379.262 28.6814C379.156 28.8888 379.207 29.1424 379.385 29.2926L379.707 28.9102ZM380.811 26.6271C382.412 27.7264 384.24 28.442 386.286 28.7785L386.448 27.7918C384.536 27.4773 382.848 26.8127 381.377 25.8026L380.811 26.6271ZM386.285 28.7784C386.933 28.8864 387.547 28.9414 388.125 28.9414V27.9414C387.61 27.9414 387.051 27.8923 386.449 27.792L386.285 28.7784ZM388.125 28.9414C388.704 28.9414 389.254 28.8863 389.774 28.7739L389.562 27.7964C389.119 27.8923 388.64 27.9414 388.125 27.9414V28.9414ZM389.774 28.7739C390.304 28.6591 390.793 28.4708 391.234 28.2061L390.719 27.3486C390.379 27.5526 389.995 27.7029 389.562 27.7964L389.774 28.7739ZM391.237 28.2043C392.214 27.6087 392.727 26.7204 392.727 25.5898H391.727C391.727 26.3603 391.406 26.9304 390.716 27.3504L391.237 28.2043ZM392.727 25.5898C392.727 24.4564 391.88 23.6316 390.599 23.0453L390.183 23.9547C391.349 24.4882 391.727 25.0567 391.727 25.5898H392.727ZM390.597 23.0444C390.028 22.7872 389.384 22.546 388.666 22.32L388.365 23.2738C389.054 23.4904 389.659 23.718 390.185 23.9556L390.597 23.0444ZM388.671 22.3217L386.523 21.6186L386.212 22.5689L388.36 23.2721L388.671 22.3217ZM386.528 21.6204C384.698 20.9973 383.498 20.433 382.866 19.9413L382.252 20.7306C383.026 21.3326 384.365 21.9402 386.206 22.5671L386.528 21.6204ZM382.869 19.9441C382.214 19.4251 381.748 18.9043 381.449 18.3866L380.583 18.8869C380.961 19.541 381.523 20.153 382.248 20.7278L382.869 19.9441ZM381.453 18.3939C381.178 17.9003 381.027 17.2666 381.027 16.4688H380.027C380.027 17.3897 380.202 18.2012 380.579 18.8795L381.453 18.3939ZM381.027 16.4688C381.027 15.6766 381.21 14.9921 381.562 14.4006L380.703 13.8885C380.249 14.6511 380.027 15.5161 380.027 16.4688H381.027ZM381.561 14.403C381.938 13.7781 382.439 13.2589 383.068 12.843L382.517 12.0085C381.767 12.5041 381.161 13.1307 380.705 13.8861L381.561 14.403ZM383.069 12.8424C384.334 12.0036 385.804 11.5781 387.5 11.5781V10.5781C385.628 10.5781 383.961 11.0511 382.517 12.0091L383.069 12.8424ZM387.5 11.5781C390.633 11.5781 393.1 12.2596 394.944 13.575L395.525 12.7609C393.463 11.2899 390.773 10.5781 387.5 10.5781V11.5781ZM394.793 12.933L393.348 15.6478L394.23 16.1178L395.676 13.4029L394.793 12.933ZM394.052 15.4573C391.977 14.1778 389.837 13.5273 387.637 13.5273V14.5273C389.629 14.5273 391.59 15.1139 393.527 16.3084L394.052 15.4573ZM387.637 13.5273C386.076 13.5273 384.851 13.9793 384.123 15.008L384.939 15.5857C385.409 14.9218 386.255 14.5273 387.637 14.5273V13.5273ZM384.118 15.0152C383.854 15.4027 383.738 15.8651 383.738 16.3711H384.738C384.738 16.0177 384.818 15.764 384.944 15.5785L384.118 15.0152ZM383.738 16.3711C383.738 16.9444 383.962 17.4436 384.38 17.8451L385.073 17.1237C384.84 16.9002 384.738 16.6572 384.738 16.3711H383.738ZM384.387 17.8518C384.775 18.2097 385.267 18.5166 385.849 18.7798L386.261 17.8687C385.749 17.637 385.355 17.3841 385.066 17.117L384.387 17.8518ZM385.858 18.7838C386.423 19.0261 387.064 19.2595 387.78 19.4847L388.08 18.5309C387.389 18.3134 386.78 18.0911 386.252 17.8646L385.858 18.7838ZM387.782 19.4855L389.93 20.1496L390.226 19.1942L388.077 18.5301L387.782 19.4855ZM389.919 20.1459C391.735 20.7555 392.926 21.3192 393.556 21.8208L394.179 21.0385C393.402 20.4204 392.067 19.8122 390.237 19.1979L389.919 20.1459ZM393.555 21.8201C394.825 22.836 395.418 24.0026 395.418 25.3359H396.418C396.418 23.6484 395.644 22.2109 394.18 21.0393L393.555 21.8201ZM395.418 25.3359C395.418 27.1326 394.677 28.5066 393.162 29.5087L393.713 30.3428C395.506 29.1574 396.418 27.4716 396.418 25.3359H395.418ZM393.161 29.5092C391.792 30.4179 390.027 30.8906 387.832 30.8906V31.8906C390.168 31.8906 392.14 31.3868 393.714 30.3424L393.161 29.5092ZM387.832 30.8906C385.53 30.8906 383.464 30.4357 381.626 29.5353L381.186 30.4334C383.176 31.408 385.395 31.8906 387.832 31.8906V30.8906ZM381.619 29.5318C381.017 29.2491 380.488 28.9139 380.029 28.5277L379.385 29.2926C379.916 29.7397 380.52 30.1206 381.194 30.437L381.619 29.5318ZM380.152 29.1389L381.538 26.4436L380.649 25.9861L379.262 28.6814L380.152 29.1389ZM400.801 14.4766H401.301C401.301 14.2004 401.077 13.9766 400.801 13.9766V14.4766ZM398.711 14.4766H398.211C398.211 14.7527 398.435 14.9766 398.711 14.9766V14.4766ZM398.711 12.0547L398.41 11.6551C398.285 11.7495 398.211 11.8975 398.211 12.0547H398.711ZM403.516 8.44141V7.94141C403.407 7.94141 403.302 7.97664 403.215 8.0418L403.516 8.44141ZM404.512 8.44141H405.012C405.012 8.16526 404.788 7.94141 404.512 7.94141V8.44141ZM404.512 11.4688H404.012C404.012 11.7449 404.236 11.9688 404.512 11.9688V11.4688ZM410.098 11.4688H410.598C410.598 11.1926 410.374 10.9688 410.098 10.9688V11.4688ZM410.098 14.4766V14.9766C410.374 14.9766 410.598 14.7527 410.598 14.4766H410.098ZM404.512 14.4766V13.9766C404.236 13.9766 404.012 14.2004 404.012 14.4766H404.512ZM405.352 26.8984L404.941 27.1834L404.943 27.1865L405.352 26.8984ZM408.633 28.3633L409.122 28.4683C409.151 28.3301 409.121 28.1859 409.039 28.0712C408.956 27.9565 408.829 27.8821 408.688 27.8664L408.633 28.3633ZM408.066 31L408.129 31.496C408.34 31.4694 408.511 31.3126 408.555 31.105L408.066 31ZM401.133 26.3711L401.623 26.273L401.622 26.2696L401.133 26.3711ZM400.801 13.9766H398.711V14.9766H400.801V13.9766ZM399.211 14.4766V12.0547H398.211V14.4766H399.211ZM399.011 12.4543L403.816 8.84102L403.215 8.0418L398.41 11.6551L399.011 12.4543ZM403.516 8.94141H404.512V7.94141H403.516V8.94141ZM404.012 8.44141V11.4688H405.012V8.44141H404.012ZM404.512 11.9688H410.098V10.9688H404.512V11.9688ZM409.598 11.4688V14.4766H410.598V11.4688H409.598ZM410.098 13.9766H404.512V14.9766H410.098V13.9766ZM404.012 14.4766V22.3672H405.012V14.4766H404.012ZM404.012 22.3672C404.012 23.4924 404.083 24.4561 404.23 25.2513C404.376 26.041 404.604 26.6981 404.941 27.1834L405.762 26.6135C405.539 26.2915 405.347 25.7897 405.213 25.069C405.081 24.3538 405.012 23.4555 405.012 22.3672H404.012ZM404.943 27.1865C405.627 28.1571 406.901 28.6724 408.577 28.8602L408.688 27.8664C407.11 27.6896 406.196 27.2283 405.76 26.6104L404.943 27.1865ZM408.144 28.2583L407.578 30.895L408.555 31.105L409.122 28.4683L408.144 28.2583ZM408.004 30.504C406.121 30.7425 404.702 30.4795 403.681 29.798C402.667 29.121 401.964 27.9758 401.623 26.273L400.643 26.4692C401.018 28.3471 401.829 29.7637 403.126 30.6297C404.416 31.4912 406.106 31.7523 408.129 31.496L408.004 30.504ZM401.622 26.2696C401.409 25.2394 401.301 24.1214 401.301 22.9141H400.301C400.301 24.1807 400.414 25.3674 400.643 26.4726L401.622 26.2696ZM401.301 22.9141V14.4766H400.301V22.9141H401.301ZM427.48 28.5L427.948 28.3224C427.891 28.1726 427.766 28.0591 427.611 28.0173C427.456 27.9755 427.291 28.0104 427.166 28.1112L427.48 28.5ZM415.332 29.9453L415.025 30.3402L415.027 30.3413L415.332 29.9453ZM420.234 18.9297L420.356 19.4146L420.356 19.4146L420.234 18.9297ZM426.934 18.1484L426.944 18.6483C427.078 18.6457 427.205 18.5893 427.297 18.4918C427.389 18.3944 427.438 18.264 427.433 18.13L426.934 18.1484ZM423.828 14.3984L423.73 14.8888L423.735 14.8897L423.828 14.3984ZM419.102 14.4961L419.195 14.9873L419.197 14.9869L419.102 14.4961ZM416.484 15.2188L416.016 15.3936C416.063 15.5197 416.159 15.6215 416.282 15.676C416.405 15.7305 416.545 15.733 416.67 15.683L416.484 15.2188ZM415.449 12.4453L415.226 11.9981C414.997 12.1124 414.891 12.3807 414.981 12.6202L415.449 12.4453ZM430 14.9258L430.45 14.7075L430.448 14.7031L430 14.9258ZM430.938 26.9766L431.399 26.7847L431.395 26.7747L430.938 26.9766ZM432.793 28.5977L433.28 28.7086C433.34 28.446 433.181 28.1832 432.921 28.1143L432.793 28.5977ZM432.246 31L432.305 31.4966C432.515 31.4718 432.687 31.3174 432.734 31.111L432.246 31ZM420.449 21.9961L420.625 22.4641L420.628 22.463L420.449 21.9961ZM417.832 23.5195L418.19 23.8688L418.194 23.8646L417.832 23.5195ZM417.305 26.7617L416.864 26.9988L416.868 27.006L417.305 26.7617ZM418.027 27.582L418.326 27.181L418.325 27.1799L418.027 27.582ZM422.383 28.0117L422.509 28.4957L422.515 28.4939L422.383 28.0117ZM424.219 27.3086L423.995 26.8614L423.991 26.8635L424.219 27.3086ZM426.934 25.2773L427.308 25.6092C427.389 25.5177 427.434 25.3996 427.434 25.2773H426.934ZM426.934 21.0586H427.434C427.434 20.9216 427.377 20.7906 427.278 20.6962C427.179 20.6019 427.045 20.5523 426.908 20.5592L426.934 21.0586ZM427.166 28.1112C424.857 29.9788 422.458 30.8906 419.961 30.8906V31.8906C422.724 31.8906 425.338 30.8754 427.795 28.8888L427.166 28.1112ZM419.961 30.8906C418.217 30.8906 416.786 30.4348 415.637 29.5493L415.027 30.3413C416.378 31.3829 418.033 31.8906 419.961 31.8906V30.8906ZM415.639 29.5504C414.418 28.6023 413.82 27.3866 413.82 25.8633H412.82C412.82 27.6994 413.564 29.205 415.025 30.3402L415.639 29.5504ZM413.82 25.8633C413.82 24.2549 414.35 22.941 415.403 21.8853C416.468 20.8167 418.102 19.9814 420.356 19.4146L420.112 18.4448C417.758 19.0368 415.934 19.9366 414.695 21.1792C413.443 22.4347 412.82 24.0081 412.82 25.8633H413.82ZM420.356 19.4146C422.171 18.9576 424.365 18.6999 426.944 18.6483L426.924 17.6485C424.294 17.7011 422.021 17.9642 420.112 18.4448L420.356 19.4146ZM427.433 18.13C427.391 16.9928 427.091 16.033 426.484 15.3002C425.875 14.565 425.002 14.1121 423.921 13.9072L423.735 14.8897C424.646 15.0624 425.287 15.4233 425.714 15.938C426.142 16.4553 426.398 17.1816 426.434 18.1668L427.433 18.13ZM423.926 13.9081C423.248 13.7725 422.603 13.7031 421.992 13.7031V14.7031C422.527 14.7031 423.106 14.764 423.73 14.8887L423.926 13.9081ZM421.992 13.7031C421.405 13.7031 420.877 13.7298 420.41 13.7847L420.527 14.7778C420.946 14.7286 421.434 14.7031 421.992 14.7031V13.7031ZM420.41 13.7847C419.954 13.8383 419.486 13.9119 419.006 14.0053L419.197 14.9869C419.654 14.898 420.098 14.8284 420.527 14.7778L420.41 13.7847ZM419.008 14.0049C417.958 14.2042 417.053 14.4527 416.299 14.7545L416.67 15.683C417.348 15.4118 418.187 15.1786 419.195 14.9873L419.008 14.0049ZM416.953 15.0439L415.918 12.2705L414.981 12.6202L416.016 15.3936L416.953 15.0439ZM415.673 12.8925C417.41 12.0237 419.53 11.5781 422.051 11.5781V10.5781C419.415 10.5781 417.134 11.044 415.226 11.9981L415.673 12.8925ZM422.051 11.5781C425.973 11.5781 428.394 12.8199 429.552 15.1485L430.448 14.7031C429.054 11.9014 426.176 10.5781 422.051 10.5781V11.5781ZM429.55 15.1441C429.94 15.9469 430.145 16.9235 430.145 18.0898H431.145C431.145 16.8083 430.92 15.6755 430.45 14.7075L429.55 15.1441ZM430.145 18.0898V24.3203H431.145V18.0898H430.145ZM430.145 24.3203C430.145 24.9947 430.169 25.5679 430.221 26.0353C430.271 26.4937 430.351 26.8864 430.48 27.1784L431.395 26.7747C431.328 26.624 431.262 26.3527 431.215 25.9257C431.169 25.5076 431.145 24.974 431.145 24.3203H430.145ZM430.476 27.1684C430.887 28.1585 431.629 28.8067 432.665 29.081L432.921 28.1143C432.186 27.9198 431.691 27.4873 431.399 26.7848L430.476 27.1684ZM432.305 28.4867L431.759 30.889L432.734 31.111L433.28 28.7086L432.305 28.4867ZM432.188 30.5034C431.035 30.6391 430.138 30.5026 429.461 30.1471C428.792 29.7963 428.283 29.2048 427.948 28.3224L427.013 28.6776C427.42 29.7484 428.076 30.55 428.996 31.0326C429.907 31.5104 431.023 31.6474 432.305 31.4966L432.188 30.5034ZM420.273 21.5281C419.033 21.9948 418.08 22.5353 417.47 23.1745L418.194 23.8646C418.652 23.3839 419.443 22.9089 420.625 22.4641L420.273 21.5281ZM417.474 23.1703C416.868 23.7908 416.531 24.5032 416.531 25.2969H417.531C417.531 24.8146 417.728 24.342 418.19 23.8688L417.474 23.1703ZM416.531 25.2969C416.531 25.9694 416.625 26.5543 416.864 26.9988L417.745 26.5247C417.62 26.2921 417.531 25.9004 417.531 25.2969H416.531ZM416.868 27.006C417.085 27.3933 417.374 27.7205 417.73 27.9841L418.325 27.1799C418.082 27.0008 417.889 26.7812 417.741 26.5174L416.868 27.006ZM417.729 27.9831C418.434 28.508 419.256 28.7656 420.176 28.7656V27.7656C419.454 27.7656 418.845 27.5675 418.326 27.181L417.729 27.9831ZM420.176 28.7656C421.03 28.7656 421.809 28.6776 422.509 28.4956L422.257 27.5278C421.655 27.6844 420.963 27.7656 420.176 27.7656V28.7656ZM422.515 28.4939C423.209 28.3034 423.853 28.0571 424.446 27.7537L423.991 26.8635C423.464 27.133 422.885 27.3555 422.25 27.5296L422.515 28.4939ZM424.442 27.7558C425.586 27.1842 426.544 26.4701 427.308 25.6092L426.56 24.9455C425.891 25.6992 425.039 26.3393 423.995 26.8614L424.442 27.7558ZM427.434 25.2773V21.0586H426.434V25.2773H427.434ZM426.908 20.5592C423.809 20.7155 421.576 21.0292 420.27 21.5292L420.628 22.463C421.77 22.0255 423.86 21.7142 426.959 21.558L426.908 20.5592ZM441.602 13.4023L441.122 13.5429C441.168 13.7007 441.289 13.8257 441.445 13.8772C441.601 13.9287 441.773 13.9001 441.904 13.8008L441.602 13.4023ZM457.539 31V31.5C457.815 31.5 458.039 31.2761 458.039 31H457.539ZM453.828 31H453.328C453.328 31.2761 453.552 31.5 453.828 31.5V31ZM452.656 16.0781L452.246 16.3643L452.249 16.3687L452.656 16.0781ZM443.047 15.7656L443.332 16.1764L443.341 16.17L443.047 15.7656ZM441.914 16.8984L441.498 16.6211C441.443 16.7032 441.414 16.7997 441.414 16.8984H441.914ZM441.914 31V31.5C442.19 31.5 442.414 31.2761 442.414 31H441.914ZM438.203 31H437.703C437.703 31.2761 437.927 31.5 438.203 31.5V31ZM438.203 11.4688V10.9688C437.927 10.9688 437.703 11.1926 437.703 11.4688H438.203ZM441.035 11.4688L441.515 11.3282C441.453 11.1151 441.257 10.9688 441.035 10.9688V11.4688ZM441.904 13.8008C443.858 12.3193 446.095 11.5781 448.633 11.5781V10.5781C445.884 10.5781 443.434 11.3864 441.3 13.0039L441.904 13.8008ZM448.633 11.5781C451.512 11.5781 453.583 12.3667 454.943 13.861C456.311 15.3642 457.039 17.6676 457.039 20.8633H458.039C458.039 17.5355 457.283 14.9464 455.682 13.1879C454.074 11.4204 451.691 10.5781 448.633 10.5781V11.5781ZM457.039 20.8633V31H458.039V20.8633H457.039ZM457.539 30.5H453.828V31.5H457.539V30.5ZM454.328 31V21.0977H453.328V31H454.328ZM454.328 21.0977C454.328 18.8044 453.934 17.0062 453.063 15.7875L452.249 16.3687C452.941 17.3375 453.328 18.8857 453.328 21.0977H454.328ZM453.066 15.792C452.073 14.369 450.467 13.7031 448.379 13.7031V14.7031C450.249 14.7031 451.495 15.2872 452.246 16.3643L453.066 15.792ZM448.379 13.7031C446.172 13.7031 444.286 14.2459 442.753 15.3613L443.341 16.17C444.672 15.202 446.341 14.7031 448.379 14.7031V13.7031ZM442.762 15.3549C442.247 15.7125 441.823 16.1339 441.498 16.6211L442.33 17.1758C442.578 16.8036 442.909 16.4698 443.332 16.1763L442.762 15.3549ZM441.414 16.8984V31H442.414V16.8984H441.414ZM441.914 30.5H438.203V31.5H441.914V30.5ZM438.703 31V11.4688H437.703V31H438.703ZM438.203 11.9688H441.035V10.9688H438.203V11.9688ZM440.555 11.6093L441.122 13.5429L442.081 13.2618L441.515 11.3282L440.555 11.6093Z" fill="white"/>
</svg>
